COMMENT vga
STARTFONT 2.1
COMMENT This font was automatically resized by bdfresize-1.5
COMMENT   mag_x = 2/1, mag_y = 2/1, blackness = 1
FONT vga
SIZE 32 75 75
FONTBOUNDINGBOX 16 32 0 -8
STARTPROPERTIES 4
FONT_DESCENT 8
FONT_ASCENT 24
AVERAGE_WIDTH 160
DEFAULT_CHAR 0
ENDPROPERTIES
CHARS 256
STARTCHAR u1EBF
ENCODING 7871
SWIDTH 1332 0
DWIDTH 16 0
BBX 16 32 0 -8
BITMAP
0000
0000
0000
0000
000F
000F
000C
000C
0330
0330
0FC0
0FC0
3030
3030
0000
0000
3FF0
3FF0
F03C
F03C
FFFC
FFFC
F000
F000
F03C
F03C
3FF0
3FF0
0000
0000
0000
0000
ENDCHAR
STARTCHAR u007F
ENCODING 127
SWIDTH 1332 0
DWIDTH 16 0
BBX 16 32 0 -8
BITMAP
0000
0000
0000
0000
0000
0000
0000
0000
0000
0000
0000
0000
0000
0000
0300
0300
0FC0
0FC0
3CF0
3CF0
F03C
F03C
F03C
F03C
FFFC
FFFC
0000
0000
0000
0000
0000
0000
ENDCHAR
STARTCHAR u0020
ENCODING 32
SWIDTH 1332 0
DWIDTH 16 0
BBX 16 32 0 -8
BITMAP
0000
0000
0000
0000
0000
0000
0000
0000
0000
0000
0000
0000
0000
0000
0000
0000
0000
0000
0000
0000
0000
0000
0000
0000
0000
0000
0000
0000
0000
0000
0000
0000
ENDCHAR
STARTCHAR u005A
ENCODING 90
SWIDTH 1332 0
DWIDTH 16 0
BBX 16 32 0 -8
BITMAP
0000
0000
0000
0000
0000
0000
0000
0000
0000
0000
FFFC
FFFC
F03C
F03C
C0F0
C0F0
03C0
03C0
0F00
0F00
3C00
3C00
F00C
F00C
F03C
F03C
FFFC
FFFC
0000
0000
0000
0000
ENDCHAR
STARTCHAR u0076
ENCODING 118
SWIDTH 1332 0
DWIDTH 16 0
BBX 16 32 0 -8
BITMAP
0000
0000
0000
0000
0000
0000
0000
0000
0000
0000
0000
0000
0000
0000
0000
0000
3C3C
3C3C
3C3C
3C3C
3C3C
3C3C
3C3C
3C3C
0FF0
0FF0
03C0
03C0
0000
0000
0000
0000
ENDCHAR
STARTCHAR u0047
ENCODING 71
SWIDTH 1332 0
DWIDTH 16 0
BBX 16 32 0 -8
BITMAP
0000
0000
0000
0000
0000
0000
0000
0000
0000
0000
0FF0
0FF0
3C3C
3C3C
F00C
F00C
F000
F000
F000
F000
F3FC
F3FC
F03C
F03C
3C3C
3C3C
0FCC
0FCC
0000
0000
0000
0000
ENDCHAR
STARTCHAR u0066
ENCODING 102
SWIDTH 1332 0
DWIDTH 16 0
BBX 16 32 0 -8
BITMAP
0000
0000
0000
0000
0000
0000
0000
0000
0000
0000
0FC0
0FC0
3CF0
3CF0
3C30
3C30
3C00
3C00
FF00
FF00
3C00
3C00
3C00
3C00
3C00
3C00
FF00
FF00
0000
0000
0000
0000
ENDCHAR
STARTCHAR u1EC6
ENCODING 7878
SWIDTH 1332 0
DWIDTH 16 0
BBX 16 32 0 -8
BITMAP
0000
0000
0000
0000
0300
0300
0FC0
0FC0
3030
3030
FFFC
FFFC
3C0C
3C0C
3C0C
3C0C
3CC0
3CC0
3FC0
3FC0
3CC0
3CC0
3C0C
3C0C
3C0C
3C0C
FFFC
FFFC
0000
0000
03C0
03C0
ENDCHAR
STARTCHAR u0010
ENCODING 16
SWIDTH 1332 0
DWIDTH 16 0
BBX 16 32 0 -8
BITMAP
0000
0000
0000
0000
0000
0000
0000
0000
0000
0000
3000
3000
3C00
3C00
3F00
3F00
3FF0
3FF0
3FFF
3FFF
3FF0
3FF0
3F00
3F00
3C00
3C00
3000
3000
0000
0000
0000
0000
ENDCHAR
STARTCHAR u0037
ENCODING 55
SWIDTH 1332 0
DWIDTH 16 0
BBX 16 32 0 -8
BITMAP
0000
0000
0000
0000
0000
0000
0000
0000
0000
0000
FFFC
FFFC
F03C
F03C
003C
003C
00F0
00F0
03C0
03C0
0F00
0F00
0F00
0F00
0F00
0F00
0F00
0F00
0000
0000
0000
0000
ENDCHAR
STARTCHAR u1EC5
ENCODING 7877
SWIDTH 1332 0
DWIDTH 16 0
BBX 16 32 0 -8
BITMAP
0000
0000
0000
0000
0F0C
0F0C
30F0
30F0
0300
0300
0FC0
0FC0
3030
3030
0000
0000
3FF0
3FF0
F03C
F03C
FFFC
FFFC
F000
F000
F03C
F03C
3FF0
3FF0
0000
0000
0000
0000
ENDCHAR
STARTCHAR u0054
ENCODING 84
SWIDTH 1332 0
DWIDTH 16 0
BBX 16 32 0 -8
BITMAP
0000
0000
0000
0000
0000
0000
0000
0000
0000
0000
3FFC
3FFC
3FFC
3FFC
33CC
33CC
03C0
03C0
03C0
03C0
03C0
03C0
03C0
03C0
03C0
03C0
0FF0
0FF0
0000
0000
0000
0000
ENDCHAR
STARTCHAR u00E9
ENCODING 233
SWIDTH 1332 0
DWIDTH 16 0
BBX 16 32 0 -8
BITMAP
0000
0000
0000
0000
0000
0000
0000
0000
00F0
00F0
00C0
00C0
0300
0300
0000
0000
3FF0
3FF0
F03C
F03C
FFFC
FFFC
F000
F000
F03C
F03C
3FF0
3FF0
0000
0000
0000
0000
ENDCHAR
STARTCHAR u0103
ENCODING 259
SWIDTH 1332 0
DWIDTH 16 0
BBX 16 32 0 -8
BITMAP
0000
0000
0000
0000
0000
0000
0000
0000
0000
0000
3030
3030
0FC0
0FC0
0000
0000
3FC0
3FC0
00F0
00F0
3FF0
3FF0
F0F0
F0F0
F0F0
F0F0
3F3C
3F3C
0000
0000
0000
0000
ENDCHAR
STARTCHAR u00C2
ENCODING 194
SWIDTH 1332 0
DWIDTH 16 0
BBX 16 32 0 -8
BITMAP
0000
0000
0000
0000
0300
0300
0FC0
0FC0
3030
3030
0300
0300
0FC0
0FC0
3CF0
3CF0
F03C
F03C
F03C
F03C
FFFC
FFFC
F03C
F03C
F03C
F03C
F03C
F03C
0000
0000
0000
0000
ENDCHAR
STARTCHAR u0039
ENCODING 57
SWIDTH 1332 0
DWIDTH 16 0
BBX 16 32 0 -8
BITMAP
0000
0000
0000
0000
0000
0000
0000
0000
0000
0000
3FF0
3FF0
F03C
F03C
F03C
F03C
F03C
F03C
3FFC
3FFC
003C
003C
003C
003C
00F0
00F0
3FC0
3FC0
0000
0000
0000
0000
ENDCHAR
STARTCHAR u1ED0
ENCODING 7888
SWIDTH 1332 0
DWIDTH 16 0
BBX 16 32 0 -8
BITMAP
0000
0000
000F
000F
030C
030C
0FF0
0FF0
3030
3030
3FF0
3FF0
F03C
F03C
F03C
F03C
F03C
F03C
F03C
F03C
F03C
F03C
F03C
F03C
F03C
F03C
3FF0
3FF0
0000
0000
0000
0000
ENDCHAR
STARTCHAR u1EC1
ENCODING 7873
SWIDTH 1332 0
DWIDTH 16 0
BBX 16 32 0 -8
BITMAP
0000
0000
0000
0000
00F0
00F0
0030
0030
030C
030C
0FC0
0FC0
3030
3030
0000
0000
3FF0
3FF0
F03C
F03C
FFFC
FFFC
F000
F000
F03C
F03C
3FF0
3FF0
0000
0000
0000
0000
ENDCHAR
STARTCHAR u0059
ENCODING 89
SWIDTH 1332 0
DWIDTH 16 0
BBX 16 32 0 -8
BITMAP
0000
0000
0000
0000
0000
0000
0000
0000
0000
0000
3C3C
3C3C
3C3C
3C3C
3C3C
3C3C
3C3C
3C3C
0FF0
0FF0
03C0
03C0
03C0
03C0
03C0
03C0
0FF0
0FF0
0000
0000
0000
0000
ENDCHAR
STARTCHAR u1EDA
ENCODING 7898
SWIDTH 1332 0
DWIDTH 16 0
BBX 16 32 0 -8
BITMAP
0000
0000
00F0
00F0
00C0
00C0
030F
030F
0003
0003
3FFC
3FFC
F03C
F03C
F03C
F03C
F03C
F03C
F03C
F03C
F03C
F03C
F03C
F03C
F03C
F03C
3FF0
3FF0
0000
0000
0000
0000
ENDCHAR
STARTCHAR u1EBA
ENCODING 7866
SWIDTH 1332 0
DWIDTH 16 0
BBX 16 32 0 -8
BITMAP
0000
0000
03F0
03F0
0030
0030
00C0
00C0
0000
0000
FFFC
FFFC
3C3C
3C3C
3C0C
3C0C
3CC0
3CC0
3FC0
3FC0
3CC0
3CC0
3C0C
3C0C
3C3C
3C3C
FFFC
FFFC
0000
0000
0000
0000
ENDCHAR
STARTCHAR u001F
ENCODING 31
SWIDTH 1332 0
DWIDTH 16 0
BBX 16 32 0 -8
BITMAP
0000
0000
0000
0000
0000
0000
0000
0000
0000
0000
03C0
03C0
0FF0
0FF0
3FFC
3FFC
FFFF
FFFF
FFFF
FFFF
3FFC
3FFC
03C0
03C0
03C0
03C0
0FF0
0FF0
0000
0000
0000
0000
ENDCHAR
STARTCHAR u0023
ENCODING 35
SWIDTH 1332 0
DWIDTH 16 0
BBX 16 32 0 -8
BITMAP
0000
0000
0000
0000
0000
0000
0000
0000
0000
0000
3CF0
3CF0
3CF0
3CF0
FFFC
FFFC
3CF0
3CF0
3CF0
3CF0
3CF0
3CF0
FFFC
FFFC
3CF0
3CF0
3CF0
3CF0
0000
0000
0000
0000
ENDCHAR
STARTCHAR u1EB6
ENCODING 7862
SWIDTH 1332 0
DWIDTH 16 0
BBX 16 32 0 -8
BITMAP
0000
0000
0000
0000
0000
0000
3030
3030
0FC0
0FC0
0300
0300
0FC0
0FC0
3CF0
3CF0
F03C
F03C
F03C
F03C
FFFC
FFFC
F03C
F03C
F03C
F03C
F03C
F03C
0000
0000
03C0
03C0
ENDCHAR
STARTCHAR u000B
ENCODING 11
SWIDTH 1332 0
DWIDTH 16 0
BBX 16 32 0 -8
BITMAP
0000
0000
0000
0000
0000
0000
0000
0000
0000
0000
03FC
03FC
00FC
00FC
03CC
03CC
0F0C
0F0C
3FC0
3FC0
F0F0
F0F0
F0F0
F0F0
F0F0
F0F0
3FC0
3FC0
0000
0000
0000
0000
ENDCHAR
STARTCHAR u1EF1
ENCODING 7921
SWIDTH 1332 0
DWIDTH 16 0
BBX 16 32 0 -8
BITMAP
0000
0000
0000
0000
0000
0000
0000
0000
0000
0000
0000
0000
000F
000F
0003
0003
F0FC
F0FC
F0F0
F0F0
F0F0
F0F0
F0F0
F0F0
F0F0
F0F0
3F3C
3F3C
0000
0000
03C0
03C0
ENDCHAR
STARTCHAR u005D
ENCODING 93
SWIDTH 1332 0
DWIDTH 16 0
BBX 16 32 0 -8
BITMAP
0000
0000
0000
0000
0000
0000
0000
0000
0000
0000
0FF0
0FF0
00F0
00F0
00F0
00F0
00F0
00F0
00F0
00F0
00F0
00F0
00F0
00F0
00F0
00F0
0FF0
0FF0
0000
0000
0000
0000
ENDCHAR
STARTCHAR u1ED7
ENCODING 7895
SWIDTH 1332 0
DWIDTH 16 0
BBX 16 32 0 -8
BITMAP
0000
0000
0000
0000
0F0C
0F0C
30F0
30F0
0300
0300
0FC0
0FC0
3030
3030
0000
0000
3FF0
3FF0
F03C
F03C
F03C
F03C
F03C
F03C
F03C
F03C
3FF0
3FF0
0000
0000
0000
0000
ENDCHAR
STARTCHAR u1ECB
ENCODING 7883
SWIDTH 1332 0
DWIDTH 16 0
BBX 16 32 0 -8
BITMAP
0000
0000
0000
0000
0000
0000
0000
0000
0000
0000
0000
0000
03C0
03C0
0000
0000
0FC0
0FC0
03C0
03C0
03C0
03C0
03C0
03C0
03C0
03C0
0FF0
0FF0
0000
0000
03C0
03C0
ENDCHAR
STARTCHAR u001D
ENCODING 29
SWIDTH 1332 0
DWIDTH 16 0
BBX 16 32 0 -8
BITMAP
0000
0000
0000
0000
0000
0000
0000
0000
0000
0000
0000
0000
0000
0000
0CC0
0CC0
3CF0
3CF0
FFFC
FFFC
3CF0
3CF0
0CC0
0CC0
0000
0000
0000
0000
0000
0000
0000
0000
ENDCHAR
STARTCHAR u0072
ENCODING 114
SWIDTH 1332 0
DWIDTH 16 0
BBX 16 32 0 -8
BITMAP
0000
0000
0000
0000
0000
0000
0000
0000
0000
0000
0000
0000
0000
0000
0000
0000
F3F0
F3F0
3F3C
3F3C
3C3C
3C3C
3C00
3C00
3C00
3C00
FF00
FF00
0000
0000
0000
0000
ENDCHAR
STARTCHAR u00E2
ENCODING 226
SWIDTH 1332 0
DWIDTH 16 0
BBX 16 32 0 -8
BITMAP
0000
0000
0000
0000
0000
0000
0000
0000
0300
0300
0FC0
0FC0
3030
3030
0000
0000
3FC0
3FC0
00F0
00F0
3FF0
3FF0
F0F0
F0F0
F0F0
F0F0
3F3C
3F3C
0000
0000
0000
0000
ENDCHAR
STARTCHAR u003A
ENCODING 58
SWIDTH 1332 0
DWIDTH 16 0
BBX 16 32 0 -8
BITMAP
0000
0000
0000
0000
0000
0000
0000
0000
0000
0000
0000
0000
03C0
03C0
03C0
03C0
0000
0000
0000
0000
0000
0000
03C0
03C0
03C0
03C0
0000
0000
0000
0000
0000
0000
ENDCHAR
STARTCHAR u00D3
ENCODING 211
SWIDTH 1332 0
DWIDTH 16 0
BBX 16 32 0 -8
BITMAP
0000
0000
003C
003C
0030
0030
00C0
00C0
0000
0000
3FF0
3FF0
F03C
F03C
F03C
F03C
F03C
F03C
F03C
F03C
F03C
F03C
F03C
F03C
F03C
F03C
3FF0
3FF0
0000
0000
0000
0000
ENDCHAR
STARTCHAR u000F
ENCODING 15
SWIDTH 1332 0
DWIDTH 16 0
BBX 16 32 0 -8
BITMAP
0000
0000
0000
0000
0000
0000
0000
0000
03C0
03C0
03C0
03C0
03C0
03C0
3FFC
3FFC
0FF0
0FF0
FFFF
FFFF
0FF0
0FF0
3FFC
3FFC
03C0
03C0
03C0
03C0
0000
0000
0000
0000
ENDCHAR
STARTCHAR u01AF
ENCODING 431
SWIDTH 1332 0
DWIDTH 16 0
BBX 16 32 0 -8
BITMAP
0000
0000
0000
0000
0000
0000
003F
003F
0003
0003
F03C
F03C
F03C
F03C
F03C
F03C
F03C
F03C
F03C
F03C
F03C
F03C
F03C
F03C
F03C
F03C
3FF0
3FF0
0000
0000
0000
0000
ENDCHAR
STARTCHAR u0065
ENCODING 101
SWIDTH 1332 0
DWIDTH 16 0
BBX 16 32 0 -8
BITMAP
0000
0000
0000
0000
0000
0000
0000
0000
0000
0000
0000
0000
0000
0000
0000
0000
3FF0
3FF0
F03C
F03C
FFFC
FFFC
F000
F000
F03C
F03C
3FF0
3FF0
0000
0000
0000
0000
ENDCHAR
STARTCHAR u0049
ENCODING 73
SWIDTH 1332 0
DWIDTH 16 0
BBX 16 32 0 -8
BITMAP
0000
0000
0000
0000
0000
0000
0000
0000
0000
0000
0FF0
0FF0
03C0
03C0
03C0
03C0
03C0
03C0
03C0
03C0
03C0
03C0
03C0
03C0
03C0
03C0
0FF0
0FF0
0000
0000
0000
0000
ENDCHAR
STARTCHAR u004C
ENCODING 76
SWIDTH 1332 0
DWIDTH 16 0
BBX 16 32 0 -8
BITMAP
0000
0000
0000
0000
0000
0000
0000
0000
0000
0000
FF00
FF00
3C00
3C00
3C00
3C00
3C00
3C00
3C00
3C00
3C00
3C00
3C0C
3C0C
3C3C
3C3C
FFFC
FFFC
0000
0000
0000
0000
ENDCHAR
STARTCHAR u003E
ENCODING 62
SWIDTH 1332 0
DWIDTH 16 0
BBX 16 32 0 -8
BITMAP
0000
0000
0000
0000
0000
0000
0000
0000
0000
0000
3C00
3C00
0F00
0F00
03C0
03C0
00F0
00F0
003C
003C
00F0
00F0
03C0
03C0
0F00
0F00
3C00
3C00
0000
0000
0000
0000
ENDCHAR
STARTCHAR u1ECE
ENCODING 7886
SWIDTH 1332 0
DWIDTH 16 0
BBX 16 32 0 -8
BITMAP
0000
0000
00FC
00FC
000C
000C
0030
0030
0000
0000
3FF0
3FF0
F03C
F03C
F03C
F03C
F03C
F03C
F03C
F03C
F03C
F03C
F03C
F03C
F03C
F03C
3FF0
3FF0
0000
0000
0000
0000
ENDCHAR
STARTCHAR u1EB2
ENCODING 7858
SWIDTH 1332 0
DWIDTH 16 0
BBX 16 32 0 -8
BITMAP
0000
0000
0FC0
0FC0
00C0
00C0
3330
3330
0FC0
0FC0
0300
0300
0FC0
0FC0
3CF0
3CF0
F03C
F03C
F03C
F03C
FFFC
FFFC
F03C
F03C
F03C
F03C
F03C
F03C
0000
0000
0000
0000
ENDCHAR
STARTCHAR u0043
ENCODING 67
SWIDTH 1332 0
DWIDTH 16 0
BBX 16 32 0 -8
BITMAP
0000
0000
0000
0000
0000
0000
0000
0000
0000
0000
0FF0
0FF0
3C3C
3C3C
F00C
F00C
F000
F000
F000
F000
F000
F000
F00C
F00C
3C3C
3C3C
0FF0
0FF0
0000
0000
0000
0000
ENDCHAR
STARTCHAR u1ED4
ENCODING 7892
SWIDTH 1332 0
DWIDTH 16 0
BBX 16 32 0 -8
BITMAP
0000
0000
003F
003F
0303
0303
0FCC
0FCC
3030
3030
3FF0
3FF0
F03C
F03C
F03C
F03C
F03C
F03C
F03C
F03C
F03C
F03C
F03C
F03C
F03C
F03C
3FF0
3FF0
0000
0000
0000
0000
ENDCHAR
STARTCHAR u0111
ENCODING 273
SWIDTH 1332 0
DWIDTH 16 0
BBX 16 32 0 -8
BITMAP
0000
0000
0000
0000
0000
0000
0000
0000
0000
0000
00F0
00F0
0FFC
0FFC
00F0
00F0
0FF0
0FF0
3CF0
3CF0
F0F0
F0F0
F0F0
F0F0
F0F0
F0F0
3F3C
3F3C
0000
0000
0000
0000
ENDCHAR
STARTCHAR u00EC
ENCODING 236
SWIDTH 1332 0
DWIDTH 16 0
BBX 16 32 0 -8
BITMAP
0000
0000
0000
0000
0000
0000
00F0
00F0
0030
0030
000C
000C
03C0
03C0
0000
0000
0FC0
0FC0
03C0
03C0
03C0
03C0
03C0
03C0
03C0
03C0
0FF0
0FF0
0000
0000
0000
0000
ENDCHAR
STARTCHAR u0169
ENCODING 361
SWIDTH 1332 0
DWIDTH 16 0
BBX 16 32 0 -8
BITMAP
0000
0000
0000
0000
0000
0000
0000
0000
0000
0000
0F0C
0F0C
30F0
30F0
0000
0000
F0F0
F0F0
F0F0
F0F0
F0F0
F0F0
F0F0
F0F0
F0F0
F0F0
3F3C
3F3C
0000
0000
0000
0000
ENDCHAR
STARTCHAR u00F9
ENCODING 249
SWIDTH 1332 0
DWIDTH 16 0
BBX 16 32 0 -8
BITMAP
0000
0000
0000
0000
0000
0000
0000
0000
0F00
0F00
0300
0300
00C0
00C0
0000
0000
F0F0
F0F0
F0F0
F0F0
F0F0
F0F0
F0F0
F0F0
F0F0
F0F0
3F3C
3F3C
0000
0000
0000
0000
ENDCHAR
STARTCHAR u00DA
ENCODING 218
SWIDTH 1332 0
DWIDTH 16 0
BBX 16 32 0 -8
BITMAP
0000
0000
0000
0000
00F0
00F0
00C0
00C0
0300
0300
F03C
F03C
F03C
F03C
F03C
F03C
F03C
F03C
F03C
F03C
F03C
F03C
F03C
F03C
F03C
F03C
3FF0
3FF0
0000
0000
0000
0000
ENDCHAR
STARTCHAR u00CA
ENCODING 202
SWIDTH 1332 0
DWIDTH 16 0
BBX 16 32 0 -8
BITMAP
0000
0000
0000
0000
0300
0300
0FC0
0FC0
3030
3030
FFFC
FFFC
3C0C
3C0C
3C0C
3C0C
3CC0
3CC0
3FC0
3FC0
3CC0
3CC0
3C0C
3C0C
3C0C
3C0C
FFFC
FFFC
0000
0000
0000
0000
ENDCHAR
STARTCHAR u000E
ENCODING 14
SWIDTH 1332 0
DWIDTH 16 0
BBX 16 32 0 -8
BITMAP
FFFF
FFFF
FFFF
FFFF
FFFF
FFFF
0000
0000
0000
0000
FFFF
FFFF
FFFF
FFFF
0000
0000
0000
0000
FFFF
FFFF
FFFF
FFFF
0000
0000
0000
0000
FFFF
FFFF
FFFF
FFFF
FFFF
FFFF
ENDCHAR
STARTCHAR u1EE3
ENCODING 7907
SWIDTH 1332 0
DWIDTH 16 0
BBX 16 32 0 -8
BITMAP
0000
0000
0000
0000
0000
0000
0000
0000
0000
0000
0000
0000
003F
003F
0003
0003
3FFC
3FFC
F03C
F03C
F03C
F03C
F03C
F03C
F03C
F03C
3FF0
3FF0
0000
0000
03C0
03C0
ENDCHAR
STARTCHAR u0031
ENCODING 49
SWIDTH 1332 0
DWIDTH 16 0
BBX 16 32 0 -8
BITMAP
0000
0000
0000
0000
0000
0000
0000
0000
0000
0000
03C0
03C0
0FC0
0FC0
3FC0
3FC0
03C0
03C0
03C0
03C0
03C0
03C0
03C0
03C0
03C0
03C0
3FFC
3FFC
0000
0000
0000
0000
ENDCHAR
STARTCHAR u0018
ENCODING 24
SWIDTH 1332 0
DWIDTH 16 0
BBX 16 32 0 -8
BITMAP
0000
0000
0000
0000
0000
0000
0000
0000
0000
0000
03C0
03C0
0FF0
0FF0
3FFC
3FFC
03C0
03C0
03C0
03C0
03C0
03C0
03C0
03C0
03C0
03C0
03C0
03C0
0000
0000
0000
0000
ENDCHAR
STARTCHAR u007C
ENCODING 124
SWIDTH 1332 0
DWIDTH 16 0
BBX 16 32 0 -8
BITMAP
0000
0000
0000
0000
0000
0000
0000
0000
0000
0000
03C0
03C0
03C0
03C0
03C0
03C0
03C0
03C0
0000
0000
03C0
03C0
03C0
03C0
03C0
03C0
03C0
03C0
0000
0000
0000
0000
ENDCHAR
STARTCHAR u0068
ENCODING 104
SWIDTH 1332 0
DWIDTH 16 0
BBX 16 32 0 -8
BITMAP
0000
0000
0000
0000
0000
0000
0000
0000
0000
0000
FC00
FC00
3C00
3C00
3C00
3C00
3CF0
3CF0
3F3C
3F3C
3C3C
3C3C
3C3C
3C3C
3C3C
3C3C
FC3C
FC3C
0000
0000
0000
0000
ENDCHAR
STARTCHAR u1EF3
ENCODING 7923
SWIDTH 1332 0
DWIDTH 16 0
BBX 16 32 0 -8
BITMAP
0000
0000
0000
0000
0000
0000
0000
0000
3C00
3C00
0C00
0C00
0300
0300
0000
0000
F03C
F03C
F03C
F03C
F03C
F03C
F03C
F03C
3FFC
3FFC
003C
003C
00F0
00F0
FFC0
FFC0
ENDCHAR
STARTCHAR u00EA
ENCODING 234
SWIDTH 1332 0
DWIDTH 16 0
BBX 16 32 0 -8
BITMAP
0000
0000
0000
0000
0000
0000
0000
0000
0300
0300
0FC0
0FC0
3030
3030
0000
0000
3FF0
3FF0
F03C
F03C
FFFC
FFFC
F000
F000
F03C
F03C
3FF0
3FF0
0000
0000
0000
0000
ENDCHAR
STARTCHAR u1EBB
ENCODING 7867
SWIDTH 1332 0
DWIDTH 16 0
BBX 16 32 0 -8
BITMAP
0000
0000
0000
0000
0000
0000
0000
0000
03F0
03F0
0030
0030
00C0
00C0
0000
0000
3FF0
3FF0
F03C
F03C
FFFC
FFFC
F000
F000
F03C
F03C
3FF0
3FF0
0000
0000
0000
0000
ENDCHAR
STARTCHAR u1EEC
ENCODING 7916
SWIDTH 1332 0
DWIDTH 16 0
BBX 16 32 0 -8
BITMAP
0000
0000
0FC0
0FC0
00C0
00C0
030F
030F
0003
0003
F03C
F03C
F03C
F03C
F03C
F03C
F03C
F03C
F03C
F03C
F03C
F03C
F03C
F03C
F03C
F03C
3FF0
3FF0
0000
0000
0000
0000
ENDCHAR
STARTCHAR u0000
ENCODING 0
SWIDTH 1332 0
DWIDTH 16 0
BBX 16 32 0 -8
BITMAP
0000
0000
0000
0000
0000
0000
0000
0000
0000
0000
0000
0000
0000
0000
0000
0000
0000
0000
0000
0000
0000
0000
0000
0000
0000
0000
0000
0000
0000
0000
0000
0000
ENDCHAR
STARTCHAR u0017
ENCODING 23
SWIDTH 1332 0
DWIDTH 16 0
BBX 16 32 0 -8
BITMAP
0000
0000
0000
0000
0000
0000
0000
0000
0000
0000
03C0
03C0
0FF0
0FF0
3FFC
3FFC
03C0
03C0
03C0
03C0
03C0
03C0
3FFC
3FFC
0FF0
0FF0
03C0
03C0
3FFC
3FFC
0000
0000
ENDCHAR
STARTCHAR u0060
ENCODING 96
SWIDTH 1332 0
DWIDTH 16 0
BBX 16 32 0 -8
BITMAP
0000
0000
0000
0000
0000
0000
3C00
3C00
3C00
3C00
3C00
3C00
0F00
0F00
0000
0000
0000
0000
0000
0000
0000
0000
0000
0000
0000
0000
0000
0000
0000
0000
0000
0000
ENDCHAR
STARTCHAR u002F
ENCODING 47
SWIDTH 1332 0
DWIDTH 16 0
BBX 16 32 0 -8
BITMAP
0000
0000
0000
0000
0000
0000
0000
0000
0000
0000
000C
000C
003C
003C
00F0
00F0
03C0
03C0
0F00
0F00
3C00
3C00
F000
F000
C000
C000
0000
0000
0000
0000
0000
0000
ENDCHAR
STARTCHAR u0008
ENCODING 8
SWIDTH 1332 0
DWIDTH 16 0
BBX 16 32 0 -8
BITMAP
0000
0000
0000
0000
0000
0000
FFFF
FFFF
FFFF
FFFF
FFFF
FFFF
FFFF
FFFF
FFFF
FFFF
FC3F
FC3F
F00F
F00F
F00F
F00F
FC3F
FC3F
FFFF
FFFF
FFFF
FFFF
FFFF
FFFF
FFFF
FFFF
ENDCHAR
STARTCHAR u0062
ENCODING 98
SWIDTH 1332 0
DWIDTH 16 0
BBX 16 32 0 -8
BITMAP
0000
0000
0000
0000
0000
0000
0000
0000
0000
0000
FC00
FC00
3C00
3C00
3C00
3C00
3FC0
3FC0
3CF0
3CF0
3C3C
3C3C
3C3C
3C3C
3C3C
3C3C
3FF0
3FF0
0000
0000
0000
0000
ENDCHAR
STARTCHAR u1EF6
ENCODING 7926
SWIDTH 1332 0
DWIDTH 16 0
BBX 16 32 0 -8
BITMAP
0000
0000
0000
0000
03F0
03F0
0030
0030
00C0
00C0
3C3C
3C3C
3C3C
3C3C
3C3C
3C3C
3C3C
3C3C
0FF0
0FF0
03C0
03C0
03C0
03C0
03C0
03C0
0FF0
0FF0
0000
0000
0000
0000
ENDCHAR
STARTCHAR u0025
ENCODING 37
SWIDTH 1332 0
DWIDTH 16 0
BBX 16 32 0 -8
BITMAP
0000
0000
0000
0000
0000
0000
0000
0000
0000
0000
0000
0000
0000
0000
F00C
F00C
F03C
F03C
00F0
00F0
03C0
03C0
0F00
0F00
3C3C
3C3C
F03C
F03C
0000
0000
0000
0000
ENDCHAR
STARTCHAR u002B
ENCODING 43
SWIDTH 1332 0
DWIDTH 16 0
BBX 16 32 0 -8
BITMAP
0000
0000
0000
0000
0000
0000
0000
0000
0000
0000
0000
0000
0000
0000
03C0
03C0
03C0
03C0
3FFC
3FFC
03C0
03C0
03C0
03C0
0000
0000
0000
0000
0000
0000
0000
0000
ENDCHAR
STARTCHAR u00C3
ENCODING 195
SWIDTH 1332 0
DWIDTH 16 0
BBX 16 32 0 -8
BITMAP
0000
0000
0000
0000
0F0C
0F0C
30F0
30F0
0000
0000
0300
0300
0FC0
0FC0
3CF0
3CF0
F03C
F03C
F03C
F03C
FFFC
FFFC
F03C
F03C
F03C
F03C
F03C
F03C
0000
0000
0000
0000
ENDCHAR
STARTCHAR u1ECF
ENCODING 7887
SWIDTH 1332 0
DWIDTH 16 0
BBX 16 32 0 -8
BITMAP
0000
0000
0000
0000
0000
0000
0000
0000
0FC0
0FC0
00C0
00C0
0300
0300
0000
0000
3FF0
3FF0
F03C
F03C
F03C
F03C
F03C
F03C
F03C
F03C
3FF0
3FF0
0000
0000
0000
0000
ENDCHAR
STARTCHAR u0015
ENCODING 21
SWIDTH 1332 0
DWIDTH 16 0
BBX 16 32 0 -8
BITMAP
0000
0000
0000
0000
0000
0000
0000
0000
3FF0
3FF0
F03C
F03C
3C00
3C00
0FC0
0FC0
3CF0
3CF0
F03C
F03C
F03C
F03C
3CF0
3CF0
0FC0
0FC0
00F0
00F0
F03C
F03C
3FF0
3FF0
ENDCHAR
STARTCHAR u00C1
ENCODING 193
SWIDTH 1332 0
DWIDTH 16 0
BBX 16 32 0 -8
BITMAP
0000
0000
0000
0000
000F
000F
000C
000C
0030
0030
0300
0300
0FC0
0FC0
3CF0
3CF0
F03C
F03C
F03C
F03C
FFFC
FFFC
F03C
F03C
F03C
F03C
F03C
F03C
0000
0000
0000
0000
ENDCHAR
STARTCHAR u0077
ENCODING 119
SWIDTH 1332 0
DWIDTH 16 0
BBX 16 32 0 -8
BITMAP
0000
0000
0000
0000
0000
0000
0000
0000
0000
0000
0000
0000
0000
0000
0000
0000
F03C
F03C
F03C
F03C
F33C
F33C
F33C
F33C
FFFC
FFFC
3CF0
3CF0
0000
0000
0000
0000
ENDCHAR
STARTCHAR u00F4
ENCODING 244
SWIDTH 1332 0
DWIDTH 16 0
BBX 16 32 0 -8
BITMAP
0000
0000
0000
0000
0000
0000
0000
0000
0300
0300
0FC0
0FC0
3030
3030
0000
0000
3FF0
3FF0
F03C
F03C
F03C
F03C
F03C
F03C
F03C
F03C
3FF0
3FF0
0000
0000
0000
0000
ENDCHAR
STARTCHAR u1EC4
ENCODING 7876
SWIDTH 1332 0
DWIDTH 16 0
BBX 16 32 0 -8
BITMAP
0F0C
0F0C
30F0
30F0
0300
0300
0FC0
0FC0
3030
3030
FFFC
FFFC
3C0C
3C0C
3C0C
3C0C
3CC0
3CC0
3FC0
3FC0
3CC0
3CC0
3C0C
3C0C
3C0C
3C0C
FFFC
FFFC
0000
0000
0000
0000
ENDCHAR
STARTCHAR u1EB3
ENCODING 7859
SWIDTH 1332 0
DWIDTH 16 0
BBX 16 32 0 -8
BITMAP
0000
0000
0000
0000
0FC0
0FC0
00C0
00C0
0300
0300
3030
3030
0FC0
0FC0
0000
0000
3FC0
3FC0
00F0
00F0
3FF0
3FF0
F0F0
F0F0
F0F0
F0F0
3F3C
3F3C
0000
0000
0000
0000
ENDCHAR
STARTCHAR u1EF0
ENCODING 7920
SWIDTH 1332 0
DWIDTH 16 0
BBX 16 32 0 -8
BITMAP
0000
0000
0000
0000
0000
0000
003F
003F
0003
0003
F03C
F03C
F03C
F03C
F03C
F03C
F03C
F03C
F03C
F03C
F03C
F03C
F03C
F03C
F03C
F03C
3FF0
3FF0
0000
0000
03C0
03C0
ENDCHAR
STARTCHAR u004A
ENCODING 74
SWIDTH 1332 0
DWIDTH 16 0
BBX 16 32 0 -8
BITMAP
0000
0000
0000
0000
0000
0000
0000
0000
0000
0000
03FC
03FC
00F0
00F0
00F0
00F0
00F0
00F0
00F0
00F0
00F0
00F0
F0F0
F0F0
F0F0
F0F0
3FC0
3FC0
0000
0000
0000
0000
ENDCHAR
STARTCHAR u1EEA
ENCODING 7914
SWIDTH 1332 0
DWIDTH 16 0
BBX 16 32 0 -8
BITMAP
0000
0000
3C00
3C00
0C00
0C00
033F
033F
0003
0003
F03C
F03C
F03C
F03C
F03C
F03C
F03C
F03C
F03C
F03C
F03C
F03C
F03C
F03C
F03C
F03C
3FF0
3FF0
0000
0000
0000
0000
ENDCHAR
STARTCHAR u003D
ENCODING 61
SWIDTH 1332 0
DWIDTH 16 0
BBX 16 32 0 -8
BITMAP
0000
0000
0000
0000
0000
0000
0000
0000
0000
0000
0000
0000
0000
0000
0000
0000
3FFC
3FFC
0000
0000
0000
0000
3FFC
3FFC
0000
0000
0000
0000
0000
0000
0000
0000
ENDCHAR
STARTCHAR u0073
ENCODING 115
SWIDTH 1332 0
DWIDTH 16 0
BBX 16 32 0 -8
BITMAP
0000
0000
0000
0000
0000
0000
0000
0000
0000
0000
0000
0000
0000
0000
0000
0000
3FF0
3FF0
F03C
F03C
3F00
3F00
03F0
03F0
F03C
F03C
3FF0
3FF0
0000
0000
0000
0000
ENDCHAR
STARTCHAR u1EBE
ENCODING 7870
SWIDTH 1332 0
DWIDTH 16 0
BBX 16 32 0 -8
BITMAP
0000
0000
000F
000F
030C
030C
0FF0
0FF0
3030
3030
FFFC
FFFC
3C0C
3C0C
3C0C
3C0C
3CC0
3CC0
3FC0
3FC0
3CC0
3CC0
3C0C
3C0C
3C0C
3C0C
FFFC
FFFC
0000
0000
0000
0000
ENDCHAR
STARTCHAR u0067
ENCODING 103
SWIDTH 1332 0
DWIDTH 16 0
BBX 16 32 0 -8
BITMAP
0000
0000
0000
0000
0000
0000
0000
0000
0000
0000
0000
0000
0000
0000
0000
0000
3F3C
3F3C
F0F0
F0F0
F0F0
F0F0
F0F0
F0F0
3FF0
3FF0
00F0
00F0
F0F0
F0F0
3FC0
3FC0
ENDCHAR
STARTCHAR u00C9
ENCODING 201
SWIDTH 1332 0
DWIDTH 16 0
BBX 16 32 0 -8
BITMAP
0000
0000
0000
0000
003C
003C
0030
0030
00C0
00C0
FFFC
FFFC
3C3C
3C3C
3C0C
3C0C
3CC0
3CC0
3FC0
3FC0
3CC0
3CC0
3C0C
3C0C
3C0C
3C0C
FFFC
FFFC
0000
0000
0000
0000
ENDCHAR
STARTCHAR u1EED
ENCODING 7917
SWIDTH 1332 0
DWIDTH 16 0
BBX 16 32 0 -8
BITMAP
0000
0000
0000
0000
0000
0000
0FC0
0FC0
00C0
00C0
0300
0300
000F
000F
0003
0003
F0FC
F0FC
F0F0
F0F0
F0F0
F0F0
F0F0
F0F0
F0F0
F0F0
3F3C
3F3C
0000
0000
0000
0000
ENDCHAR
STARTCHAR u1EBD
ENCODING 7869
SWIDTH 1332 0
DWIDTH 16 0
BBX 16 32 0 -8
BITMAP
0000
0000
0000
0000
0000
0000
0000
0000
0F0C
0F0C
30F0
30F0
0000
0000
0000
0000
3FF0
3FF0
F03C
F03C
FFFC
FFFC
F000
F000
F03C
F03C
3FF0
3FF0
0000
0000
0000
0000
ENDCHAR
STARTCHAR u0071
ENCODING 113
SWIDTH 1332 0
DWIDTH 16 0
BBX 16 32 0 -8
BITMAP
0000
0000
0000
0000
0000
0000
0000
0000
0000
0000
0000
0000
0000
0000
0000
0000
3F3C
3F3C
F0F0
F0F0
F0F0
F0F0
F0F0
F0F0
3FF0
3FF0
00F0
00F0
00F0
00F0
03FC
03FC
ENDCHAR
STARTCHAR u1EAB
ENCODING 7851
SWIDTH 1332 0
DWIDTH 16 0
BBX 16 32 0 -8
BITMAP
0000
0000
0000
0000
0F0C
0F0C
30F0
30F0
0300
0300
0FC0
0FC0
3030
3030
0000
0000
3FC0
3FC0
00F0
00F0
3FF0
3FF0
F0F0
F0F0
F0F0
F0F0
3F3C
3F3C
0000
0000
0000
0000
ENDCHAR
STARTCHAR u005B
ENCODING 91
SWIDTH 1332 0
DWIDTH 16 0
BBX 16 32 0 -8
BITMAP
0000
0000
0000
0000
0000
0000
0000
0000
0000
0000
0FF0
0FF0
0F00
0F00
0F00
0F00
0F00
0F00
0F00
0F00
0F00
0F00
0F00
0F00
0F00
0F00
0FF0
0FF0
0000
0000
0000
0000
ENDCHAR
STARTCHAR u006B
ENCODING 107
SWIDTH 1332 0
DWIDTH 16 0
BBX 16 32 0 -8
BITMAP
0000
0000
0000
0000
0000
0000
0000
0000
0000
0000
FC00
FC00
3C00
3C00
3C00
3C00
3C3C
3C3C
3CF0
3CF0
3FC0
3FC0
3CF0
3CF0
3C3C
3C3C
FC3C
FC3C
0000
0000
0000
0000
ENDCHAR
STARTCHAR u1ECC
ENCODING 7884
SWIDTH 1332 0
DWIDTH 16 0
BBX 16 32 0 -8
BITMAP
0000
0000
0000
0000
0000
0000
0000
0000
0000
0000
3FF0
3FF0
F03C
F03C
F03C
F03C
F03C
F03C
F03C
F03C
F03C
F03C
F03C
F03C
F03C
F03C
3FF0
3FF0
0000
0000
03C0
03C0
ENDCHAR
STARTCHAR u0057
ENCODING 87
SWIDTH 1332 0
DWIDTH 16 0
BBX 16 32 0 -8
BITMAP
0000
0000
0000
0000
0000
0000
0000
0000
0000
0000
F03C
F03C
F03C
F03C
F03C
F03C
F03C
F03C
F33C
F33C
F33C
F33C
FFFC
FFFC
3FF0
3FF0
3CF0
3CF0
0000
0000
0000
0000
ENDCHAR
STARTCHAR u1EA3
ENCODING 7843
SWIDTH 1332 0
DWIDTH 16 0
BBX 16 32 0 -8
BITMAP
0000
0000
0000
0000
0000
0000
0000
0000
03F0
03F0
0030
0030
00C0
00C0
0000
0000
3FC0
3FC0
00F0
00F0
3FF0
3FF0
F0F0
F0F0
F0F0
F0F0
3F3C
3F3C
0000
0000
0000
0000
ENDCHAR
STARTCHAR u004D
ENCODING 77
SWIDTH 1332 0
DWIDTH 16 0
BBX 16 32 0 -8
BITMAP
0000
0000
0000
0000
0000
0000
0000
0000
0000
0000
F03C
F03C
FCFC
FCFC
FFFC
FFFC
FFFC
FFFC
F33C
F33C
F03C
F03C
F03C
F03C
F03C
F03C
F03C
F03C
0000
0000
0000
0000
ENDCHAR
STARTCHAR u1EE7
ENCODING 7911
SWIDTH 1332 0
DWIDTH 16 0
BBX 16 32 0 -8
BITMAP
0000
0000
0000
0000
0000
0000
0000
0000
0FC0
0FC0
00C0
00C0
0300
0300
0000
0000
F0F0
F0F0
F0F0
F0F0
F0F0
F0F0
F0F0
F0F0
F0F0
F0F0
3F3C
3F3C
0000
0000
0000
0000
ENDCHAR
STARTCHAR u00DD
ENCODING 221
SWIDTH 1332 0
DWIDTH 16 0
BBX 16 32 0 -8
BITMAP
0000
0000
003C
003C
0030
0030
00C0
00C0
0000
0000
3C3C
3C3C
3C3C
3C3C
3C3C
3C3C
3C3C
3C3C
0FF0
0FF0
03C0
03C0
03C0
03C0
03C0
03C0
0FF0
0FF0
0000
0000
0000
0000
ENDCHAR
STARTCHAR u0027
ENCODING 39
SWIDTH 1332 0
DWIDTH 16 0
BBX 16 32 0 -8
BITMAP
0000
0000
0000
0000
0000
0000
0000
0000
0F00
0F00
0F00
0F00
0F00
0F00
3C00
3C00
0000
0000
0000
0000
0000
0000
0000
0000
0000
0000
0000
0000
0000
0000
0000
0000
ENDCHAR
STARTCHAR u1EF8
ENCODING 7928
SWIDTH 1332 0
DWIDTH 16 0
BBX 16 32 0 -8
BITMAP
0000
0000
0000
0000
0F0C
0F0C
30F0
30F0
0000
0000
3C3C
3C3C
3C3C
3C3C
3C3C
3C3C
3C3C
3C3C
0FF0
0FF0
03C0
03C0
03C0
03C0
03C0
03C0
0FF0
0FF0
0000
0000
0000
0000
ENDCHAR
STARTCHAR u0040
ENCODING 64
SWIDTH 1332 0
DWIDTH 16 0
BBX 16 32 0 -8
BITMAP
0000
0000
0000
0000
0000
0000
0000
0000
0000
0000
3FF0
3FF0
F03C
F03C
F03C
F03C
F3FC
F3FC
F3FC
F3FC
F3FC
F3FC
F3F0
F3F0
F000
F000
3FF0
3FF0
0000
0000
0000
0000
ENDCHAR
STARTCHAR u0061
ENCODING 97
SWIDTH 1332 0
DWIDTH 16 0
BBX 16 32 0 -8
BITMAP
0000
0000
0000
0000
0000
0000
0000
0000
0000
0000
0000
0000
0000
0000
0000
0000
3FC0
3FC0
00F0
00F0
3FF0
3FF0
F0F0
F0F0
F0F0
F0F0
3F3C
3F3C
0000
0000
0000
0000
ENDCHAR
STARTCHAR u01A1
ENCODING 417
SWIDTH 1332 0
DWIDTH 16 0
BBX 16 32 0 -8
BITMAP
0000
0000
0000
0000
0000
0000
0000
0000
0000
0000
0000
0000
003F
003F
0003
0003
3FFC
3FFC
F03C
F03C
F03C
F03C
F03C
F03C
F03C
F03C
3FF0
3FF0
0000
0000
0000
0000
ENDCHAR
STARTCHAR u000C
ENCODING 12
SWIDTH 1332 0
DWIDTH 16 0
BBX 16 32 0 -8
BITMAP
0000
0000
0000
0000
0000
0000
0000
0000
0000
0000
0FF0
0FF0
3C3C
3C3C
3C3C
3C3C
3C3C
3C3C
0FF0
0FF0
03C0
03C0
3FFC
3FFC
03C0
03C0
03C0
03C0
0000
0000
0000
0000
ENDCHAR
STARTCHAR u0029
ENCODING 41
SWIDTH 1332 0
DWIDTH 16 0
BBX 16 32 0 -8
BITMAP
0000
0000
0000
0000
0000
0000
0000
0000
0000
0000
0F00
0F00
03C0
03C0
00F0
00F0
00F0
00F0
00F0
00F0
00F0
00F0
00F0
00F0
03C0
03C0
0F00
0F00
0000
0000
0000
0000
ENDCHAR
STARTCHAR u0034
ENCODING 52
SWIDTH 1332 0
DWIDTH 16 0
BBX 16 32 0 -8
BITMAP
0000
0000
0000
0000
0000
0000
0000
0000
0000
0000
00F0
00F0
03F0
03F0
0FF0
0FF0
3CF0
3CF0
F0F0
F0F0
FFFC
FFFC
00F0
00F0
00F0
00F0
03FC
03FC
0000
0000
0000
0000
ENDCHAR
STARTCHAR u1EAE
ENCODING 7854
SWIDTH 1332 0
DWIDTH 16 0
BBX 16 32 0 -8
BITMAP
0000
0000
00F0
00F0
00C0
00C0
3330
3330
0FC0
0FC0
0300
0300
0FC0
0FC0
3CF0
3CF0
F03C
F03C
F03C
F03C
FFFC
FFFC
F03C
F03C
F03C
F03C
F03C
F03C
0000
0000
0000
0000
ENDCHAR
STARTCHAR u1ED9
ENCODING 7897
SWIDTH 1332 0
DWIDTH 16 0
BBX 16 32 0 -8
BITMAP
0000
0000
0000
0000
0000
0000
0000
0000
0300
0300
0FC0
0FC0
3030
3030
0000
0000
3FF0
3FF0
F03C
F03C
F03C
F03C
F03C
F03C
F03C
F03C
3FF0
3FF0
0000
0000
03C0
03C0
ENDCHAR
STARTCHAR u002D
ENCODING 45
SWIDTH 1332 0
DWIDTH 16 0
BBX 16 32 0 -8
BITMAP
0000
0000
0000
0000
0000
0000
0000
0000
0000
0000
0000
0000
0000
0000
0000
0000
0000
0000
FFFC
FFFC
0000
0000
0000
0000
0000
0000
0000
0000
0000
0000
0000
0000
ENDCHAR
STARTCHAR u1EDE
ENCODING 7902
SWIDTH 1332 0
DWIDTH 16 0
BBX 16 32 0 -8
BITMAP
0000
0000
03F0
03F0
0030
0030
00CF
00CF
0003
0003
3FFC
3FFC
F03C
F03C
F03C
F03C
F03C
F03C
F03C
F03C
F03C
F03C
F03C
F03C
F03C
F03C
3FF0
3FF0
0000
0000
0000
0000
ENDCHAR
STARTCHAR u00ED
ENCODING 237
SWIDTH 1332 0
DWIDTH 16 0
BBX 16 32 0 -8
BITMAP
0000
0000
0000
0000
0000
0000
000F
000F
000C
000C
0030
0030
03C0
03C0
0000
0000
0FC0
0FC0
03C0
03C0
03C0
03C0
03C0
03C0
03C0
03C0
0FF0
0FF0
0000
0000
0000
0000
ENDCHAR
STARTCHAR u1EB7
ENCODING 7863
SWIDTH 1332 0
DWIDTH 16 0
BBX 16 32 0 -8
BITMAP
0000
0000
0000
0000
0000
0000
0000
0000
0000
0000
3030
3030
0FC0
0FC0
0000
0000
3FC0
3FC0
00F0
00F0
3FF0
3FF0
F0F0
F0F0
F0F0
F0F0
3F3C
3F3C
0000
0000
03C0
03C0
ENDCHAR
STARTCHAR u1EF4
ENCODING 7924
SWIDTH 1332 0
DWIDTH 16 0
BBX 16 32 0 -8
BITMAP
0000
0000
0000
0000
0000
0000
0000
0000
0000
0000
3C3C
3C3C
3C3C
3C3C
3C3C
3C3C
3C3C
3C3C
0FF0
0FF0
03C0
03C0
03C0
03C0
03C0
03C0
0FF0
0FF0
0000
0000
03C0
03C0
ENDCHAR
STARTCHAR u1EE6
ENCODING 7910
SWIDTH 1332 0
DWIDTH 16 0
BBX 16 32 0 -8
BITMAP
0000
0000
03F0
03F0
0030
0030
00C0
00C0
0000
0000
F03C
F03C
F03C
F03C
F03C
F03C
F03C
F03C
F03C
F03C
F03C
F03C
F03C
F03C
F03C
F03C
3FF0
3FF0
0000
0000
0000
0000
ENDCHAR
STARTCHAR u0044
ENCODING 68
SWIDTH 1332 0
DWIDTH 16 0
BBX 16 32 0 -8
BITMAP
0000
0000
0000
0000
0000
0000
0000
0000
0000
0000
FFC0
FFC0
3CF0
3CF0
3C3C
3C3C
3C3C
3C3C
3C3C
3C3C
3C3C
3C3C
3C3C
3C3C
3CF0
3CF0
FFC0
FFC0
0000
0000
0000
0000
ENDCHAR
STARTCHAR u0001
ENCODING 1
SWIDTH 1332 0
DWIDTH 16 0
BBX 16 32 0 -8
BITMAP
0000
0000
0000
0000
0000
0000
0000
0000
0000
0000
3FFC
3FFC
C003
C003
CC33
CC33
C003
C003
C003
C003
CFF3
CFF3
C3C3
C3C3
C003
C003
3FFC
3FFC
0000
0000
0000
0000
ENDCHAR
STARTCHAR u0074
ENCODING 116
SWIDTH 1332 0
DWIDTH 16 0
BBX 16 32 0 -8
BITMAP
0000
0000
0000
0000
0000
0000
0000
0000
0000
0000
0300
0300
0F00
0F00
0F00
0F00
FFF0
FFF0
0F00
0F00
0F00
0F00
0F00
0F00
0F3C
0F3C
03F0
03F0
0000
0000
0000
0000
ENDCHAR
STARTCHAR u01A0
ENCODING 416
SWIDTH 1332 0
DWIDTH 16 0
BBX 16 32 0 -8
BITMAP
0000
0000
0000
0000
0000
0000
000F
000F
0003
0003
3FFC
3FFC
F03C
F03C
F03C
F03C
F03C
F03C
F03C
F03C
F03C
F03C
F03C
F03C
F03C
F03C
3FF0
3FF0
0000
0000
0000
0000
ENDCHAR
STARTCHAR u1EE1
ENCODING 7905
SWIDTH 1332 0
DWIDTH 16 0
BBX 16 32 0 -8
BITMAP
0000
0000
0000
0000
0000
0000
0F0C
0F0C
30F0
30F0
0000
0000
003F
003F
0003
0003
3FFC
3FFC
F03C
F03C
F03C
F03C
F03C
F03C
F03C
F03C
3FF0
3FF0
0000
0000
0000
0000
ENDCHAR
STARTCHAR u0064
ENCODING 100
SWIDTH 1332 0
DWIDTH 16 0
BBX 16 32 0 -8
BITMAP
0000
0000
0000
0000
0000
0000
0000
0000
0000
0000
03F0
03F0
00F0
00F0
00F0
00F0
0FF0
0FF0
3CF0
3CF0
F0F0
F0F0
F0F0
F0F0
F0F0
F0F0
3F3C
3F3C
0000
0000
0000
0000
ENDCHAR
STARTCHAR u0078
ENCODING 120
SWIDTH 1332 0
DWIDTH 16 0
BBX 16 32 0 -8
BITMAP
0000
0000
0000
0000
0000
0000
0000
0000
0000
0000
0000
0000
0000
0000
0000
0000
F03C
F03C
3CF0
3CF0
0FC0
0FC0
0FC0
0FC0
3CF0
3CF0
F03C
F03C
0000
0000
0000
0000
ENDCHAR
STARTCHAR u1EE4
ENCODING 7908
SWIDTH 1332 0
DWIDTH 16 0
BBX 16 32 0 -8
BITMAP
0000
0000
0000
0000
0000
0000
0000
0000
0000
0000
F03C
F03C
F03C
F03C
F03C
F03C
F03C
F03C
F03C
F03C
F03C
F03C
F03C
F03C
F03C
F03C
3FF0
3FF0
0000
0000
03C0
03C0
ENDCHAR
STARTCHAR u0053
ENCODING 83
SWIDTH 1332 0
DWIDTH 16 0
BBX 16 32 0 -8
BITMAP
0000
0000
0000
0000
0000
0000
0000
0000
0000
0000
3FF0
3FF0
F03C
F03C
F03C
F03C
3C00
3C00
0FC0
0FC0
00F0
00F0
F03C
F03C
F03C
F03C
3FF0
3FF0
0000
0000
0000
0000
ENDCHAR
STARTCHAR u1EAA
ENCODING 7850
SWIDTH 1332 0
DWIDTH 16 0
BBX 16 32 0 -8
BITMAP
0F0C
0F0C
30F0
30F0
0300
0300
0FC0
0FC0
3030
3030
0300
0300
0FC0
0FC0
3CF0
3CF0
F03C
F03C
F03C
F03C
FFFC
FFFC
F03C
F03C
F03C
F03C
F03C
F03C
0000
0000
0000
0000
ENDCHAR
STARTCHAR u1EB4
ENCODING 7860
SWIDTH 1332 0
DWIDTH 16 0
BBX 16 32 0 -8
BITMAP
0000
0000
0F0C
0F0C
30F0
30F0
3030
3030
0FC0
0FC0
0300
0300
0FC0
0FC0
3CF0
3CF0
F03C
F03C
F03C
F03C
FFFC
FFFC
F03C
F03C
F03C
F03C
F03C
F03C
0000
0000
0000
0000
ENDCHAR
STARTCHAR u1EF7
ENCODING 7927
SWIDTH 1332 0
DWIDTH 16 0
BBX 16 32 0 -8
BITMAP
0000
0000
0000
0000
0000
0000
0000
0000
0FC0
0FC0
00C0
00C0
0300
0300
0000
0000
F03C
F03C
F03C
F03C
F03C
F03C
F03C
F03C
3FFC
3FFC
003C
003C
00F0
00F0
FFC0
FFC0
ENDCHAR
STARTCHAR u00D9
ENCODING 217
SWIDTH 1332 0
DWIDTH 16 0
BBX 16 32 0 -8
BITMAP
0000
0000
0000
0000
0F00
0F00
0300
0300
00C0
00C0
F03C
F03C
F03C
F03C
F03C
F03C
F03C
F03C
F03C
F03C
F03C
F03C
F03C
F03C
F03C
F03C
3FF0
3FF0
0000
0000
0000
0000
ENDCHAR
STARTCHAR u007A
ENCODING 122
SWIDTH 1332 0
DWIDTH 16 0
BBX 16 32 0 -8
BITMAP
0000
0000
0000
0000
0000
0000
0000
0000
0000
0000
0000
0000
0000
0000
0000
0000
FFFC
FFFC
F0F0
F0F0
03C0
03C0
0F00
0F00
3C3C
3C3C
FFFC
FFFC
0000
0000
0000
0000
ENDCHAR
STARTCHAR u00CD
ENCODING 205
SWIDTH 1332 0
DWIDTH 16 0
BBX 16 32 0 -8
BITMAP
0000
0000
003C
003C
0030
0030
00C0
00C0
0000
0000
0FF0
0FF0
03C0
03C0
03C0
03C0
03C0
03C0
03C0
03C0
03C0
03C0
03C0
03C0
03C0
03C0
0FF0
0FF0
0000
0000
0000
0000
ENDCHAR
STARTCHAR u002A
ENCODING 42
SWIDTH 1332 0
DWIDTH 16 0
BBX 16 32 0 -8
BITMAP
0000
0000
0000
0000
0000
0000
0000
0000
0000
0000
0000
0000
0000
0000
3C3C
3C3C
0FF0
0FF0
FFFF
FFFF
0FF0
0FF0
3C3C
3C3C
0000
0000
0000
0000
0000
0000
0000
0000
ENDCHAR
STARTCHAR u0016
ENCODING 22
SWIDTH 1332 0
DWIDTH 16 0
BBX 16 32 0 -8
BITMAP
0000
0000
0000
0000
0000
0000
0000
0000
0000
0000
0000
0000
0000
0000
0000
0000
0000
0000
0000
0000
0000
0000
FFFC
FFFC
FFFC
FFFC
FFFC
FFFC
0000
0000
0000
0000
ENDCHAR
STARTCHAR u002E
ENCODING 46
SWIDTH 1332 0
DWIDTH 16 0
BBX 16 32 0 -8
BITMAP
0000
0000
0000
0000
0000
0000
0000
0000
0000
0000
0000
0000
0000
0000
0000
0000
0000
0000
0000
0000
0000
0000
0000
0000
03C0
03C0
03C0
03C0
0000
0000
0000
0000
ENDCHAR
STARTCHAR u0024
ENCODING 36
SWIDTH 1332 0
DWIDTH 16 0
BBX 16 32 0 -8
BITMAP
0000
0000
0000
0000
0000
0000
03C0
03C0
03C0
03C0
3FF0
3FF0
F03C
F03C
F00C
F00C
F000
F000
3FF0
3FF0
003C
003C
C03C
C03C
F03C
F03C
3FF0
3FF0
03C0
03C0
03C0
03C0
ENDCHAR
STARTCHAR u00D5
ENCODING 213
SWIDTH 1332 0
DWIDTH 16 0
BBX 16 32 0 -8
BITMAP
0000
0000
0000
0000
0000
0000
0000
0000
0000
0000
0000
0000
0000
0000
0000
0000
3FC0
3FC0
00F0
00F0
3FF0
3FF0
F0F0
F0F0
F0F0
F0F0
3F3C
3F3C
0000
0000
03C0
03C0
ENDCHAR
STARTCHAR u005E
ENCODING 94
SWIDTH 1332 0
DWIDTH 16 0
BBX 16 32 0 -8
BITMAP
0000
0000
0000
0000
0000
0000
0300
0300
0FC0
0FC0
3CF0
3CF0
F03C
F03C
0000
0000
0000
0000
0000
0000
0000
0000
0000
0000
0000
0000
0000
0000
0000
0000
0000
0000
ENDCHAR
STARTCHAR u0033
ENCODING 51
SWIDTH 1332 0
DWIDTH 16 0
BBX 16 32 0 -8
BITMAP
0000
0000
0000
0000
0000
0000
0000
0000
0000
0000
3FF0
3FF0
F03C
F03C
003C
003C
003C
003C
0FF0
0FF0
003C
003C
003C
003C
F03C
F03C
3FF0
3FF0
0000
0000
0000
0000
ENDCHAR
STARTCHAR u0128
ENCODING 296
SWIDTH 1332 0
DWIDTH 16 0
BBX 16 32 0 -8
BITMAP
0000
0000
0000
0000
0F0C
0F0C
30F0
30F0
0000
0000
0FF0
0FF0
03C0
03C0
03C0
03C0
03C0
03C0
03C0
03C0
03C0
03C0
03C0
03C0
03C0
03C0
0FF0
0FF0
0000
0000
0000
0000
ENDCHAR
STARTCHAR u1EC3
ENCODING 7875
SWIDTH 1332 0
DWIDTH 16 0
BBX 16 32 0 -8
BITMAP
0000
0000
0000
0000
003F
003F
0003
0003
030C
030C
0FC0
0FC0
3030
3030
0000
0000
3FF0
3FF0
F03C
F03C
FFFC
FFFC
F000
F000
F03C
F03C
3FF0
3FF0
0000
0000
0000
0000
ENDCHAR
STARTCHAR u1EAF
ENCODING 7855
SWIDTH 1332 0
DWIDTH 16 0
BBX 16 32 0 -8
BITMAP
0000
0000
0000
0000
003C
003C
0030
0030
00C0
00C0
3030
3030
0FC0
0FC0
0000
0000
3FC0
3FC0
00F0
00F0
3FF0
3FF0
F0F0
F0F0
F0F0
F0F0
3F3C
3F3C
0000
0000
0000
0000
ENDCHAR
STARTCHAR u1EA7
ENCODING 7847
SWIDTH 1332 0
DWIDTH 16 0
BBX 16 32 0 -8
BITMAP
0000
0000
0000
0000
0000
0000
003C
003C
030C
030C
0FC3
0FC3
3030
3030
0000
0000
3FC0
3FC0
00F0
00F0
3FF0
3FF0
F0F0
F0F0
F0F0
F0F0
3F3C
3F3C
0000
0000
0000
0000
ENDCHAR
STARTCHAR u1EBC
ENCODING 7868
SWIDTH 1332 0
DWIDTH 16 0
BBX 16 32 0 -8
BITMAP
0000
0000
0000
0000
0F0C
0F0C
30F0
30F0
0000
0000
FFFC
FFFC
3C3C
3C3C
3C0C
3C0C
3CC0
3CC0
3FC0
3FC0
3CC0
3CC0
3C0C
3C0C
3C3C
3C3C
FFFC
FFFC
0000
0000
0000
0000
ENDCHAR
STARTCHAR u1EF9
ENCODING 7929
SWIDTH 1332 0
DWIDTH 16 0
BBX 16 32 0 -8
BITMAP
0000
0000
0000
0000
0000
0000
0000
0000
0F0C
0F0C
30F0
30F0
0000
0000
0000
0000
F03C
F03C
F03C
F03C
F03C
F03C
F03C
F03C
3FFC
3FFC
003C
003C
00F0
00F0
FFC0
FFC0
ENDCHAR
STARTCHAR u1ED5
ENCODING 7893
SWIDTH 1332 0
DWIDTH 16 0
BBX 16 32 0 -8
BITMAP
0000
0000
0000
0000
003F
003F
0003
0003
030C
030C
0FC0
0FC0
3030
3030
0000
0000
3FF0
3FF0
F03C
F03C
F03C
F03C
F03C
F03C
F03C
F03C
3FF0
3FF0
0000
0000
0000
0000
ENDCHAR
STARTCHAR u1EDD
ENCODING 7901
SWIDTH 1332 0
DWIDTH 16 0
BBX 16 32 0 -8
BITMAP
0000
0000
0000
0000
0000
0000
3C00
3C00
0C00
0C00
0300
0300
003F
003F
0003
0003
3FFC
3FFC
F03C
F03C
F03C
F03C
F03C
F03C
F03C
F03C
3FF0
3FF0
0000
0000
0000
0000
ENDCHAR
STARTCHAR u1EA1
ENCODING 7841
SWIDTH 1332 0
DWIDTH 16 0
BBX 16 32 0 -8
BITMAP
0000
0000
0000
0000
0F0C
0F0C
30F0
30F0
0000
0000
3FF0
3FF0
F03C
F03C
F03C
F03C
F03C
F03C
F03C
F03C
F03C
F03C
F03C
F03C
F03C
F03C
3FF0
3FF0
0000
0000
0000
0000
ENDCHAR
STARTCHAR u00C8
ENCODING 200
SWIDTH 1332 0
DWIDTH 16 0
BBX 16 32 0 -8
BITMAP
0000
0000
0000
0000
03C0
03C0
00C0
00C0
0030
0030
FFFC
FFFC
3C3C
3C3C
3C0C
3C0C
3CC0
3CC0
3FC0
3FC0
3CC0
3CC0
3C0C
3C0C
3C0C
3C0C
FFFC
FFFC
0000
0000
0000
0000
ENDCHAR
STARTCHAR u0012
ENCODING 18
SWIDTH 1332 0
DWIDTH 16 0
BBX 16 32 0 -8
BITMAP
0000
0000
0000
0000
0000
0000
0000
0000
0000
0000
03C0
03C0
0FF0
0FF0
3FFC
3FFC
03C0
03C0
03C0
03C0
03C0
03C0
3FFC
3FFC
0FF0
0FF0
03C0
03C0
0000
0000
0000
0000
ENDCHAR
STARTCHAR u007D
ENCODING 125
SWIDTH 1332 0
DWIDTH 16 0
BBX 16 32 0 -8
BITMAP
0000
0000
0000
0000
0000
0000
0000
0000
0000
0000
3F00
3F00
03C0
03C0
03C0
03C0
03C0
03C0
00FC
00FC
03C0
03C0
03C0
03C0
03C0
03C0
3F00
3F00
0000
0000
0000
0000
ENDCHAR
STARTCHAR u002C
ENCODING 44
SWIDTH 1332 0
DWIDTH 16 0
BBX 16 32 0 -8
BITMAP
0000
0000
0000
0000
0000
0000
0000
0000
0000
0000
0000
0000
0000
0000
0000
0000
0000
0000
0000
0000
0000
0000
03C0
03C0
03C0
03C0
03C0
03C0
0F00
0F00
0000
0000
ENDCHAR
STARTCHAR u1EA4
ENCODING 7844
SWIDTH 1332 0
DWIDTH 16 0
BBX 16 32 0 -8
BITMAP
0000
0000
000F
000F
030C
030C
0FF0
0FF0
3030
3030
0300
0300
0FC0
0FC0
3CF0
3CF0
F03C
F03C
F03C
F03C
FFFC
FFFC
F03C
F03C
F03C
F03C
F03C
F03C
0000
0000
0000
0000
ENDCHAR
STARTCHAR u001B
ENCODING 27
SWIDTH 1332 0
DWIDTH 16 0
BBX 16 32 0 -8
BITMAP
0000
0000
0000
0000
0000
0000
0000
0000
0000
0000
0000
0000
0000
0000
0F00
0F00
3C00
3C00
FFFC
FFFC
3C00
3C00
0F00
0F00
0000
0000
0000
0000
0000
0000
0000
0000
ENDCHAR
STARTCHAR u0110
ENCODING 272
SWIDTH 1332 0
DWIDTH 16 0
BBX 16 32 0 -8
BITMAP
0000
0000
0000
0000
0000
0000
0000
0000
0000
0000
FFC0
FFC0
3CF0
3CF0
3C3C
3C3C
3C3C
3C3C
FF3C
FF3C
3C3C
3C3C
3C3C
3C3C
3CF0
3CF0
FFC0
FFC0
0000
0000
0000
0000
ENDCHAR
STARTCHAR u005F
ENCODING 95
SWIDTH 1332 0
DWIDTH 16 0
BBX 16 32 0 -8
BITMAP
0000
0000
0000
0000
0000
0000
0000
0000
0000
0000
0000
0000
0000
0000
0000
0000
0000
0000
0000
0000
0000
0000
0000
0000
0000
0000
0000
0000
0000
0000
FFFF
FFFF
ENDCHAR
STARTCHAR u1EC9
ENCODING 7881
SWIDTH 1332 0
DWIDTH 16 0
BBX 16 32 0 -8
BITMAP
0000
0000
0000
0000
0000
0000
003F
003F
0003
0003
000C
000C
03C0
03C0
0000
0000
0FC0
0FC0
03C0
03C0
03C0
03C0
03C0
03C0
03C0
03C0
0FF0
0FF0
0000
0000
0000
0000
ENDCHAR
STARTCHAR u1EF2
ENCODING 7922
SWIDTH 1332 0
DWIDTH 16 0
BBX 16 32 0 -8
BITMAP
0000
0000
0F00
0F00
0300
0300
00C0
00C0
0000
0000
3C3C
3C3C
3C3C
3C3C
3C3C
3C3C
3C3C
3C3C
0FF0
0FF0
03C0
03C0
03C0
03C0
03C0
03C0
0FF0
0FF0
0000
0000
0000
0000
ENDCHAR
STARTCHAR u006D
ENCODING 109
SWIDTH 1332 0
DWIDTH 16 0
BBX 16 32 0 -8
BITMAP
0000
0000
0000
0000
0000
0000
0000
0000
0000
0000
0000
0000
0000
0000
0000
0000
FCF0
FCF0
FFFC
FFFC
F33C
F33C
F33C
F33C
F33C
F33C
F03C
F03C
0000
0000
0000
0000
ENDCHAR
STARTCHAR u1EA8
ENCODING 7848
SWIDTH 1332 0
DWIDTH 16 0
BBX 16 32 0 -8
BITMAP
003F
003F
0003
0003
030C
030C
0FC0
0FC0
3030
3030
0300
0300
0FC0
0FC0
3CF0
3CF0
F03C
F03C
F03C
F03C
FFFC
FFFC
F03C
F03C
F03C
F03C
F03C
F03C
0000
0000
0000
0000
ENDCHAR
STARTCHAR u00F3
ENCODING 243
SWIDTH 1332 0
DWIDTH 16 0
BBX 16 32 0 -8
BITMAP
0000
0000
0000
0000
0000
0000
0000
0000
003C
003C
0030
0030
00C0
00C0
0000
0000
3FF0
3FF0
F03C
F03C
F03C
F03C
F03C
F03C
F03C
F03C
3FF0
3FF0
0000
0000
0000
0000
ENDCHAR
STARTCHAR u004E
ENCODING 78
SWIDTH 1332 0
DWIDTH 16 0
BBX 16 32 0 -8
BITMAP
0000
0000
0000
0000
0000
0000
0000
0000
0000
0000
F03C
F03C
FC3C
FC3C
FF3C
FF3C
FFFC
FFFC
F3FC
F3FC
F0FC
F0FC
F03C
F03C
F03C
F03C
F03C
F03C
0000
0000
0000
0000
ENDCHAR
STARTCHAR u006A
ENCODING 106
SWIDTH 1332 0
DWIDTH 16 0
BBX 16 32 0 -8
BITMAP
0000
0000
0000
0000
0000
0000
0000
0000
0000
0000
003C
003C
003C
003C
0000
0000
00FC
00FC
003C
003C
003C
003C
003C
003C
003C
003C
3C3C
3C3C
3C3C
3C3C
0FF0
0FF0
ENDCHAR
STARTCHAR u0041
ENCODING 65
SWIDTH 1332 0
DWIDTH 16 0
BBX 16 32 0 -8
BITMAP
0000
0000
0000
0000
0000
0000
0000
0000
0000
0000
0300
0300
0FC0
0FC0
3CF0
3CF0
F03C
F03C
F03C
F03C
FFFC
FFFC
F03C
F03C
F03C
F03C
F03C
F03C
0000
0000
0000
0000
ENDCHAR
STARTCHAR u1EF5
ENCODING 7925
SWIDTH 1332 0
DWIDTH 16 0
BBX 16 32 0 -8
BITMAP
0000
0000
0000
0000
0000
0000
0000
0000
0000
0000
0000
0000
0000
0000
0000
0000
F03C
F03C
F03C
F03C
F03C
F03C
F03C
F03C
3FFC
3FFC
003C
003C
00F0
00F0
FFCF
FFCF
ENDCHAR
STARTCHAR u0051
ENCODING 81
SWIDTH 1332 0
DWIDTH 16 0
BBX 16 32 0 -8
BITMAP
0000
0000
0000
0000
0000
0000
0000
0000
0000
0000
3FF0
3FF0
F03C
F03C
F03C
F03C
F03C
F03C
F03C
F03C
F33C
F33C
F3FC
F3FC
3FF0
3FF0
00F0
00F0
00FC
00FC
0000
0000
ENDCHAR
STARTCHAR u003C
ENCODING 60
SWIDTH 1332 0
DWIDTH 16 0
BBX 16 32 0 -8
BITMAP
0000
0000
0000
0000
0000
0000
0000
0000
0000
0000
003C
003C
00F0
00F0
03C0
03C0
0F00
0F00
3C00
3C00
0F00
0F00
03C0
03C0
00F0
00F0
003C
003C
0000
0000
0000
0000
ENDCHAR
STARTCHAR u1EA0
ENCODING 7840
SWIDTH 1332 0
DWIDTH 16 0
BBX 16 32 0 -8
BITMAP
0000
0000
0000
0000
0000
0000
0000
0000
0000
0000
0300
0300
0FC0
0FC0
3CF0
3CF0
F03C
F03C
F03C
F03C
FFFC
FFFC
F03C
F03C
F03C
F03C
F03C
F03C
0000
0000
03C0
03C0
ENDCHAR
STARTCHAR u01B0
ENCODING 432
SWIDTH 1332 0
DWIDTH 16 0
BBX 16 32 0 -8
BITMAP
0000
0000
0000
0000
0000
0000
0000
0000
0000
0000
0000
0000
000F
000F
0003
0003
F0FC
F0FC
F0F0
F0F0
F0F0
F0F0
F0F0
F0F0
F0F0
F0F0
3F3C
3F3C
0000
0000
0000
0000
ENDCHAR
STARTCHAR u0056
ENCODING 86
SWIDTH 1332 0
DWIDTH 16 0
BBX 16 32 0 -8
BITMAP
0000
0000
0000
0000
0000
0000
0000
0000
0000
0000
F03C
F03C
F03C
F03C
F03C
F03C
F03C
F03C
F03C
F03C
F03C
F03C
3CF0
3CF0
0FC0
0FC0
0300
0300
0000
0000
0000
0000
ENDCHAR
STARTCHAR u00CC
ENCODING 204
SWIDTH 1332 0
DWIDTH 16 0
BBX 16 32 0 -8
BITMAP
0000
0000
3C00
3C00
0C00
0C00
0300
0300
0000
0000
0FF0
0FF0
03C0
03C0
03C0
03C0
03C0
03C0
03C0
03C0
03C0
03C0
03C0
03C0
03C0
03C0
0FF0
0FF0
0000
0000
0000
0000
ENDCHAR
STARTCHAR u0011
ENCODING 17
SWIDTH 1332 0
DWIDTH 16 0
BBX 16 32 0 -8
BITMAP
0000
0000
0000
0000
0000
0000
0000
0000
0000
0000
000C
000C
003C
003C
00FC
00FC
0FFC
0FFC
FFFC
FFFC
0FFC
0FFC
00FC
00FC
003C
003C
000C
000C
0000
0000
0000
0000
ENDCHAR
STARTCHAR u0052
ENCODING 82
SWIDTH 1332 0
DWIDTH 16 0
BBX 16 32 0 -8
BITMAP
0000
0000
0000
0000
0000
0000
0000
0000
0000
0000
FFF0
FFF0
3C3C
3C3C
3C3C
3C3C
3C3C
3C3C
3FF0
3FF0
3CF0
3CF0
3C3C
3C3C
3C3C
3C3C
FC3C
FC3C
0000
0000
0000
0000
ENDCHAR
STARTCHAR u006E
ENCODING 110
SWIDTH 1332 0
DWIDTH 16 0
BBX 16 32 0 -8
BITMAP
0000
0000
0000
0000
0000
0000
0000
0000
0000
0000
0000
0000
0000
0000
0000
0000
F3F0
F3F0
3C3C
3C3C
3C3C
3C3C
3C3C
3C3C
3C3C
3C3C
3C3C
3C3C
0000
0000
0000
0000
ENDCHAR
STARTCHAR u1EE0
ENCODING 7904
SWIDTH 1332 0
DWIDTH 16 0
BBX 16 32 0 -8
BITMAP
0000
0000
0F0C
0F0C
30F0
30F0
000F
000F
0003
0003
3FFC
3FFC
F03C
F03C
F03C
F03C
F03C
F03C
F03C
F03C
F03C
F03C
F03C
F03C
F03C
F03C
3FF0
3FF0
0000
0000
0000
0000
ENDCHAR
STARTCHAR u1EC8
ENCODING 7880
SWIDTH 1332 0
DWIDTH 16 0
BBX 16 32 0 -8
BITMAP
0000
0000
03F0
03F0
0030
0030
00C0
00C0
0000
0000
0FF0
0FF0
03C0
03C0
03C0
03C0
03C0
03C0
03C0
03C0
03C0
03C0
03C0
03C0
03C0
03C0
0FF0
0FF0
0000
0000
0000
0000
ENDCHAR
STARTCHAR u0045
ENCODING 69
SWIDTH 1332 0
DWIDTH 16 0
BBX 16 32 0 -8
BITMAP
0000
0000
0000
0000
0000
0000
0000
0000
0000
0000
FFFC
FFFC
3C3C
3C3C
3C0C
3C0C
3CC0
3CC0
3FC0
3FC0
3CC0
3CC0
3C0C
3C0C
3C0C
3C0C
FFFC
FFFC
0000
0000
0000
0000
ENDCHAR
STARTCHAR u0070
ENCODING 112
SWIDTH 1332 0
DWIDTH 16 0
BBX 16 32 0 -8
BITMAP
0000
0000
0000
0000
0000
0000
0000
0000
0000
0000
0000
0000
0000
0000
0000
0000
F3F0
F3F0
3C3C
3C3C
3C3C
3C3C
3C3C
3C3C
3FF0
3FF0
3C00
3C00
3C00
3C00
FF00
FF00
ENDCHAR
STARTCHAR u00E0
ENCODING 224
SWIDTH 1332 0
DWIDTH 16 0
BBX 16 32 0 -8
BITMAP
0000
0000
0000
0000
0000
0000
0000
0000
0F00
0F00
0300
0300
00C0
00C0
0000
0000
3FC0
3FC0
00F0
00F0
3FF0
3FF0
F0F0
F0F0
F0F0
F0F0
3F3C
3F3C
0000
0000
0000
0000
ENDCHAR
STARTCHAR u1ECD
ENCODING 7885
SWIDTH 1332 0
DWIDTH 16 0
BBX 16 32 0 -8
BITMAP
0000
0000
0000
0000
0000
0000
0000
0000
0000
0000
0000
0000
0000
0000
0000
0000
3FF0
3FF0
F03C
F03C
F03C
F03C
F03C
F03C
F03C
F03C
3FF0
3FF0
0000
0000
03C0
03C0
ENDCHAR
STARTCHAR u1EEE
ENCODING 7918
SWIDTH 1332 0
DWIDTH 16 0
BBX 16 32 0 -8
BITMAP
0000
0000
0F0C
0F0C
30F0
30F0
000F
000F
0003
0003
F03C
F03C
F03C
F03C
F03C
F03C
F03C
F03C
F03C
F03C
F03C
F03C
F03C
F03C
F03C
F03C
3FF0
3FF0
0000
0000
0000
0000
ENDCHAR
STARTCHAR u1EE5
ENCODING 7909
SWIDTH 1332 0
DWIDTH 16 0
BBX 16 32 0 -8
BITMAP
0000
0000
0000
0000
0000
0000
0000
0000
0000
0000
0000
0000
0000
0000
0000
0000
F0F0
F0F0
F0F0
F0F0
F0F0
F0F0
F0F0
F0F0
F0F0
F0F0
3F3C
3F3C
0000
0000
03C0
03C0
ENDCHAR
STARTCHAR u004F
ENCODING 79
SWIDTH 1332 0
DWIDTH 16 0
BBX 16 32 0 -8
BITMAP
0000
0000
0000
0000
0000
0000
0000
0000
0000
0000
3FF0
3FF0
F03C
F03C
F03C
F03C
F03C
F03C
F03C
F03C
F03C
F03C
F03C
F03C
F03C
F03C
3FF0
3FF0
0000
0000
0000
0000
ENDCHAR
STARTCHAR u0079
ENCODING 121
SWIDTH 1332 0
DWIDTH 16 0
BBX 16 32 0 -8
BITMAP
0000
0000
0000
0000
0000
0000
0000
0000
0000
0000
0000
0000
0000
0000
0000
0000
F03C
F03C
F03C
F03C
F03C
F03C
F03C
F03C
3FFC
3FFC
003C
003C
00F0
00F0
FFC0
FFC0
ENDCHAR
STARTCHAR u1EE9
ENCODING 7913
SWIDTH 1332 0
DWIDTH 16 0
BBX 16 32 0 -8
BITMAP
0000
0000
0000
0000
0000
0000
00F0
00F0
00C0
00C0
0300
0300
000F
000F
0003
0003
F0FC
F0FC
F0F0
F0F0
F0F0
F0F0
F0F0
F0F0
F0F0
F0F0
3F3C
3F3C
0000
0000
0000
0000
ENDCHAR
STARTCHAR u00D4
ENCODING 212
SWIDTH 1332 0
DWIDTH 16 0
BBX 16 32 0 -8
BITMAP
0000
0000
0000
0000
0300
0300
0FC0
0FC0
3030
3030
3FF0
3FF0
F03C
F03C
F03C
F03C
F03C
F03C
F03C
F03C
F03C
F03C
F03C
F03C
F03C
F03C
3FF0
3FF0
0000
0000
0000
0000
ENDCHAR
STARTCHAR u007E
ENCODING 126
SWIDTH 1332 0
DWIDTH 16 0
BBX 16 32 0 -8
BITMAP
0000
0000
0000
0000
0000
0000
0000
0000
0000
0000
3F3C
3F3C
F3F0
F3F0
0000
0000
0000
0000
0000
0000
0000
0000
0000
0000
0000
0000
0000
0000
0000
0000
0000
0000
ENDCHAR
STARTCHAR u1EB5
ENCODING 7861
SWIDTH 1332 0
DWIDTH 16 0
BBX 16 32 0 -8
BITMAP
0000
0000
0000
0000
03C3
03C3
0C3C
0C3C
0000
0000
3030
3030
0FC0
0FC0
0000
0000
3FC0
3FC0
00F0
00F0
3FF0
3FF0
F0F0
F0F0
F0F0
F0F0
3F3C
3F3C
0000
0000
0000
0000
ENDCHAR
STARTCHAR u00FD
ENCODING 253
SWIDTH 1332 0
DWIDTH 16 0
BBX 16 32 0 -8
BITMAP
0000
0000
0000
0000
0000
0000
0000
0000
00F0
00F0
00C0
00C0
0300
0300
0000
0000
F03C
F03C
F03C
F03C
F03C
F03C
F03C
F03C
3FFC
3FFC
003C
003C
00F0
00F0
FFC0
FFC0
ENDCHAR
STARTCHAR u1EA5
ENCODING 7845
SWIDTH 1332 0
DWIDTH 16 0
BBX 16 32 0 -8
BITMAP
0000
0000
0000
0000
000F
000F
000C
000C
0330
0330
0FC0
0FC0
3030
3030
0000
0000
3FC0
3FC0
00F0
00F0
3FF0
3FF0
F0F0
F0F0
F0F0
F0F0
3F3C
3F3C
0000
0000
0000
0000
ENDCHAR
STARTCHAR u0075
ENCODING 117
SWIDTH 1332 0
DWIDTH 16 0
BBX 16 32 0 -8
BITMAP
0000
0000
0000
0000
0000
0000
0000
0000
0000
0000
0000
0000
0000
0000
0000
0000
F0F0
F0F0
F0F0
F0F0
F0F0
F0F0
F0F0
F0F0
F0F0
F0F0
3F3C
3F3C
0000
0000
0000
0000
ENDCHAR
STARTCHAR u1EC2
ENCODING 7874
SWIDTH 1332 0
DWIDTH 16 0
BBX 16 32 0 -8
BITMAP
00FC
00FC
000C
000C
0330
0330
0FC0
0FC0
3030
3030
FFFC
FFFC
3C0C
3C0C
3C0C
3C0C
3CC0
3CC0
3FC0
3FC0
3CC0
3CC0
3C0C
3C0C
3C0C
3C0C
FFFC
FFFC
0000
0000
0000
0000
ENDCHAR
STARTCHAR u0021
ENCODING 33
SWIDTH 1332 0
DWIDTH 16 0
BBX 16 32 0 -8
BITMAP
0000
0000
0000
0000
0000
0000
0000
0000
0000
0000
03C0
03C0
0FF0
0FF0
0FF0
0FF0
0FF0
0FF0
03C0
03C0
03C0
03C0
0000
0000
03C0
03C0
03C0
03C0
0000
0000
0000
0000
ENDCHAR
STARTCHAR u003F
ENCODING 63
SWIDTH 1332 0
DWIDTH 16 0
BBX 16 32 0 -8
BITMAP
0000
0000
0000
0000
0000
0000
0000
0000
0000
0000
3FF0
3FF0
F03C
F03C
F03C
F03C
00F0
00F0
03C0
03C0
03C0
03C0
0000
0000
03C0
03C0
03C0
03C0
0000
0000
0000
0000
ENDCHAR
STARTCHAR u0007
ENCODING 7
SWIDTH 1332 0
DWIDTH 16 0
BBX 16 32 0 -8
BITMAP
0000
0000
0000
0000
0000
0000
0000
0000
0000
0000
0000
0000
0000
0000
0000
0000
03C0
03C0
0FF0
0FF0
0FF0
0FF0
03C0
03C0
0000
0000
0000
0000
0000
0000
0000
0000
ENDCHAR
STARTCHAR u0050
ENCODING 80
SWIDTH 1332 0
DWIDTH 16 0
BBX 16 32 0 -8
BITMAP
0000
0000
0000
0000
0000
0000
0000
0000
0000
0000
FFF0
FFF0
3C3C
3C3C
3C3C
3C3C
3C3C
3C3C
3FF0
3FF0
3C00
3C00
3C00
3C00
3C00
3C00
FF00
FF00
0000
0000
0000
0000
ENDCHAR
STARTCHAR u001A
ENCODING 26
SWIDTH 1332 0
DWIDTH 16 0
BBX 16 32 0 -8
BITMAP
0000
0000
0000
0000
0000
0000
0000
0000
0000
0000
0000
0000
0000
0000
03C0
03C0
00F0
00F0
FFFC
FFFC
00F0
00F0
03C0
03C0
0000
0000
0000
0000
0000
0000
0000
0000
ENDCHAR
STARTCHAR u00E3
ENCODING 227
SWIDTH 1332 0
DWIDTH 16 0
BBX 16 32 0 -8
BITMAP
0000
0000
0000
0000
0000
0000
0000
0000
0000
0000
0F0C
0F0C
30F0
30F0
0000
0000
3FC0
3FC0
00F0
00F0
3FF0
3FF0
F0F0
F0F0
F0F0
F0F0
3F3C
3F3C
0000
0000
0000
0000
ENDCHAR
STARTCHAR u1EEF
ENCODING 7919
SWIDTH 1332 0
DWIDTH 16 0
BBX 16 32 0 -8
BITMAP
0000
0000
0000
0000
0000
0000
0000
0000
0F0C
0F0C
30F0
30F0
000F
000F
0003
0003
F0FC
F0FC
F0F0
F0F0
F0F0
F0F0
F0F0
F0F0
F0F0
F0F0
3F3C
3F3C
0000
0000
0000
0000
ENDCHAR
STARTCHAR u1EE8
ENCODING 7912
SWIDTH 1332 0
DWIDTH 16 0
BBX 16 32 0 -8
BITMAP
0000
0000
00F0
00F0
00C0
00C0
033F
033F
0003
0003
F03C
F03C
F03C
F03C
F03C
F03C
F03C
F03C
F03C
F03C
F03C
F03C
F03C
F03C
F03C
F03C
3FF0
3FF0
0000
0000
0000
0000
ENDCHAR
STARTCHAR u0063
ENCODING 99
SWIDTH 1332 0
DWIDTH 16 0
BBX 16 32 0 -8
BITMAP
0000
0000
0000
0000
0000
0000
0000
0000
0000
0000
0000
0000
0000
0000
0000
0000
3FF0
3FF0
F03C
F03C
F000
F000
F000
F000
F03C
F03C
3FF0
3FF0
0000
0000
0000
0000
ENDCHAR
STARTCHAR u0048
ENCODING 72
SWIDTH 1332 0
DWIDTH 16 0
BBX 16 32 0 -8
BITMAP
0000
0000
0000
0000
0000
0000
0000
0000
0000
0000
F03C
F03C
F03C
F03C
F03C
F03C
F03C
F03C
FFFC
FFFC
F03C
F03C
F03C
F03C
F03C
F03C
F03C
F03C
0000
0000
0000
0000
ENDCHAR
STARTCHAR u0129
ENCODING 297
SWIDTH 1332 0
DWIDTH 16 0
BBX 16 32 0 -8
BITMAP
0000
0000
0000
0000
0000
0000
0F0C
0F0C
30F0
30F0
0000
0000
03C0
03C0
0000
0000
0FC0
0FC0
03C0
03C0
03C0
03C0
03C0
03C0
03C0
03C0
0FF0
0FF0
0000
0000
0000
0000
ENDCHAR
STARTCHAR u006C
ENCODING 108
SWIDTH 1332 0
DWIDTH 16 0
BBX 16 32 0 -8
BITMAP
0000
0000
0000
0000
0000
0000
0000
0000
0000
0000
0FC0
0FC0
03C0
03C0
03C0
03C0
03C0
03C0
03C0
03C0
03C0
03C0
03C0
03C0
03C0
03C0
0FF0
0FF0
0000
0000
0000
0000
ENDCHAR
STARTCHAR u005C
ENCODING 92
SWIDTH 1332 0
DWIDTH 16 0
BBX 16 32 0 -8
BITMAP
0000
0000
0000
0000
0000
0000
0000
0000
0000
0000
C000
C000
F000
F000
FC00
FC00
3F00
3F00
0FC0
0FC0
03F0
03F0
00FC
00FC
003C
003C
000C
000C
0000
0000
0000
0000
ENDCHAR
STARTCHAR u00E8
ENCODING 232
SWIDTH 1332 0
DWIDTH 16 0
BBX 16 32 0 -8
BITMAP
0000
0000
0000
0000
0000
0000
0000
0000
0F00
0F00
0300
0300
00C0
00C0
0000
0000
3FF0
3FF0
F03C
F03C
FFFC
FFFC
F000
F000
F03C
F03C
3FF0
3FF0
0000
0000
0000
0000
ENDCHAR
STARTCHAR u000A
ENCODING 10
SWIDTH 1332 0
DWIDTH 16 0
BBX 16 32 0 -8
BITMAP
0000
0000
0000
0000
0000
0000
FFFF
FFFF
FFFF
FFFF
FFFF
FFFF
FFFF
FFFF
F00F
F00F
C3C3
C3C3
CFF3
CFF3
CFF3
CFF3
C3C3
C3C3
F00F
F00F
FFFF
FFFF
FFFF
FFFF
FFFF
FFFF
ENDCHAR
STARTCHAR u1ECA
ENCODING 7882
SWIDTH 1332 0
DWIDTH 16 0
BBX 16 32 0 -8
BITMAP
0000
0000
0000
0000
0000
0000
0000
0000
0000
0000
0FF0
0FF0
03C0
03C0
03C0
03C0
03C0
03C0
03C0
03C0
03C0
03C0
03C0
03C0
03C0
03C0
0FF0
0FF0
0000
0000
03C0
03C0
ENDCHAR
STARTCHAR u00E1
ENCODING 225
SWIDTH 1332 0
DWIDTH 16 0
BBX 16 32 0 -8
BITMAP
0000
0000
0000
0000
0000
0000
0000
0000
00F0
00F0
00C0
00C0
0300
0300
0000
0000
3FC0
3FC0
00F0
00F0
3FF0
3FF0
F0F0
F0F0
F0F0
F0F0
3F3C
3F3C
0000
0000
0000
0000
ENDCHAR
STARTCHAR u1EA6
ENCODING 7846
SWIDTH 1332 0
DWIDTH 16 0
BBX 16 32 0 -8
BITMAP
0000
0000
003C
003C
030C
030C
0FC3
0FC3
3030
3030
0300
0300
0FC0
0FC0
3CF0
3CF0
F03C
F03C
F03C
F03C
FFFC
FFFC
F03C
F03C
F03C
F03C
F03C
F03C
0000
0000
0000
0000
ENDCHAR
STARTCHAR u1EC7
ENCODING 7879
SWIDTH 1332 0
DWIDTH 16 0
BBX 16 32 0 -8
BITMAP
0000
0000
0000
0000
0000
0000
0000
0000
0300
0300
0FC0
0FC0
3030
3030
0000
0000
3FF0
3FF0
F03C
F03C
FFFC
FFFC
F000
F000
F03C
F03C
3FF0
3FF0
0000
0000
03C0
03C0
ENDCHAR
STARTCHAR u0030
ENCODING 48
SWIDTH 1332 0
DWIDTH 16 0
BBX 16 32 0 -8
BITMAP
0000
0000
0000
0000
0000
0000
0000
0000
0000
0000
3FF0
3FF0
F03C
F03C
F0FC
F0FC
F3FC
F3FC
FF3C
FF3C
FC3C
FC3C
F03C
F03C
F03C
F03C
3FF0
3FF0
0000
0000
0000
0000
ENDCHAR
STARTCHAR u0168
ENCODING 360
SWIDTH 1332 0
DWIDTH 16 0
BBX 16 32 0 -8
BITMAP
0000
0000
0000
0000
0F0C
0F0C
30F0
30F0
0000
0000
F03C
F03C
F03C
F03C
F03C
F03C
F03C
F03C
F03C
F03C
F03C
F03C
F03C
F03C
F03C
F03C
3FF0
3FF0
0000
0000
0000
0000
ENDCHAR
STARTCHAR u1ED2
ENCODING 7890
SWIDTH 1332 0
DWIDTH 16 0
BBX 16 32 0 -8
BITMAP
0000
0000
0000
0000
033C
033C
0FCC
0FCC
3033
3033
3FF0
3FF0
F03C
F03C
F03C
F03C
F03C
F03C
F03C
F03C
F03C
F03C
F03C
F03C
F03C
F03C
3FF0
3FF0
0000
0000
0000
0000
ENDCHAR
STARTCHAR u1ED1
ENCODING 7889
SWIDTH 1332 0
DWIDTH 16 0
BBX 16 32 0 -8
BITMAP
0000
0000
0000
0000
000F
000F
000C
000C
0330
0330
0FC0
0FC0
3030
3030
0000
0000
3FF0
3FF0
F03C
F03C
F03C
F03C
F03C
F03C
F03C
F03C
3FF0
3FF0
0000
0000
0000
0000
ENDCHAR
STARTCHAR u007B
ENCODING 123
SWIDTH 1332 0
DWIDTH 16 0
BBX 16 32 0 -8
BITMAP
0000
0000
0000
0000
0000
0000
0000
0000
0000
0000
00FC
00FC
03C0
03C0
03C0
03C0
03C0
03C0
3F00
3F00
03C0
03C0
03C0
03C0
03C0
03C0
00FC
00FC
0000
0000
0000
0000
ENDCHAR
STARTCHAR u0032
ENCODING 50
SWIDTH 1332 0
DWIDTH 16 0
BBX 16 32 0 -8
BITMAP
0000
0000
0000
0000
0000
0000
0000
0000
0000
0000
3FF0
3FF0
F03C
F03C
003C
003C
00F0
00F0
03C0
03C0
0F00
0F00
3C00
3C00
F03C
F03C
FFFC
FFFC
0000
0000
0000
0000
ENDCHAR
STARTCHAR u1EEB
ENCODING 7915
SWIDTH 1332 0
DWIDTH 16 0
BBX 16 32 0 -8
BITMAP
0000
0000
0000
0000
0000
0000
0F00
0F00
0300
0300
00C0
00C0
000F
000F
0003
0003
F0FC
F0FC
F0F0
F0F0
F0F0
F0F0
F0F0
F0F0
F0F0
F0F0
3F3C
3F3C
0000
0000
0000
0000
ENDCHAR
STARTCHAR u00D2
ENCODING 210
SWIDTH 1332 0
DWIDTH 16 0
BBX 16 32 0 -8
BITMAP
0000
0000
03C0
03C0
00C0
00C0
0030
0030
0000
0000
3FF0
3FF0
F03C
F03C
F03C
F03C
F03C
F03C
F03C
F03C
F03C
F03C
F03C
F03C
F03C
F03C
3FF0
3FF0
0000
0000
0000
0000
ENDCHAR
STARTCHAR u0102
ENCODING 258
SWIDTH 1332 0
DWIDTH 16 0
BBX 16 32 0 -8
BITMAP
0000
0000
0000
0000
0000
0000
3030
3030
0FC0
0FC0
0300
0300
0FC0
0FC0
3CF0
3CF0
F03C
F03C
F03C
F03C
FFFC
FFFC
F03C
F03C
F03C
F03C
F03C
F03C
0000
0000
0000
0000
ENDCHAR
STARTCHAR u1EB0
ENCODING 7856
SWIDTH 1332 0
DWIDTH 16 0
BBX 16 32 0 -8
BITMAP
0000
0000
0F00
0F00
0300
0300
30F0
30F0
0FC0
0FC0
0300
0300
0FC0
0FC0
3CF0
3CF0
F03C
F03C
F03C
F03C
FFFC
FFFC
F03C
F03C
F03C
F03C
F03C
F03C
0000
0000
0000
0000
ENDCHAR
STARTCHAR u1EB9
ENCODING 7865
SWIDTH 1332 0
DWIDTH 16 0
BBX 16 32 0 -8
BITMAP
0000
0000
0000
0000
0000
0000
0000
0000
0000
0000
0000
0000
0000
0000
0000
0000
3FF0
3FF0
F03C
F03C
FFFC
FFFC
F000
F000
F03C
F03C
3FF0
3FF0
0000
0000
03C0
03C0
ENDCHAR
STARTCHAR u0038
ENCODING 56
SWIDTH 1332 0
DWIDTH 16 0
BBX 16 32 0 -8
BITMAP
0000
0000
0000
0000
0000
0000
0000
0000
0000
0000
3FF0
3FF0
F03C
F03C
F03C
F03C
F03C
F03C
3FF0
3FF0
F03C
F03C
F03C
F03C
F03C
F03C
3FF0
3FF0
0000
0000
0000
0000
ENDCHAR
STARTCHAR u0042
ENCODING 66
SWIDTH 1332 0
DWIDTH 16 0
BBX 16 32 0 -8
BITMAP
0000
0000
0000
0000
0000
0000
0000
0000
0000
0000
FFF0
FFF0
3C3C
3C3C
3C3C
3C3C
3C3C
3C3C
3FF0
3FF0
3C3C
3C3C
3C3C
3C3C
3C3C
3C3C
FFF0
FFF0
0000
0000
0000
0000
ENDCHAR
STARTCHAR u0013
ENCODING 19
SWIDTH 1332 0
DWIDTH 16 0
BBX 16 32 0 -8
BITMAP
0000
0000
0000
0000
0000
0000
0000
0000
0000
0000
3C3C
3C3C
3C3C
3C3C
3C3C
3C3C
3C3C
3C3C
3C3C
3C3C
3C3C
3C3C
0000
0000
3C3C
3C3C
3C3C
3C3C
0000
0000
0000
0000
ENDCHAR
STARTCHAR u1EC0
ENCODING 7872
SWIDTH 1332 0
DWIDTH 16 0
BBX 16 32 0 -8
BITMAP
0000
0000
003C
003C
030C
030C
0FC3
0FC3
3030
3030
FFFC
FFFC
3C0C
3C0C
3C0C
3C0C
3CC0
3CC0
3FC0
3FC0
3CC0
3CC0
3C0C
3C0C
3C0C
3C0C
FFFC
FFFC
0000
0000
0000
0000
ENDCHAR
STARTCHAR u0036
ENCODING 54
SWIDTH 1332 0
DWIDTH 16 0
BBX 16 32 0 -8
BITMAP
0000
0000
0000
0000
0000
0000
0000
0000
0000
0000
0FC0
0FC0
3C00
3C00
F000
F000
F000
F000
FFF0
FFF0
F03C
F03C
F03C
F03C
F03C
F03C
3FF0
3FF0
0000
0000
0000
0000
ENDCHAR
STARTCHAR u0046
ENCODING 70
SWIDTH 1332 0
DWIDTH 16 0
BBX 16 32 0 -8
BITMAP
0000
0000
0000
0000
0000
0000
0000
0000
0000
0000
FFFC
FFFC
3C3C
3C3C
3C0C
3C0C
3CC0
3CC0
3FC0
3FC0
3CC0
3CC0
3C00
3C00
3C00
3C00
FF00
FF00
0000
0000
0000
0000
ENDCHAR
STARTCHAR u1EAD
ENCODING 7853
SWIDTH 1332 0
DWIDTH 16 0
BBX 16 32 0 -8
BITMAP
0000
0000
0000
0000
0000
0000
0000
0000
0300
0300
0FC0
0FC0
3030
3030
0000
0000
3FC0
3FC0
00F0
00F0
3FF0
3FF0
F0F0
F0F0
F0F0
F0F0
3F3C
3F3C
0000
0000
03C0
03C0
ENDCHAR
STARTCHAR u1EDF
ENCODING 7903
SWIDTH 1332 0
DWIDTH 16 0
BBX 16 32 0 -8
BITMAP
0000
0000
0000
0000
0000
0000
03F0
03F0
0030
0030
00C0
00C0
000F
000F
0003
0003
3FFC
3FFC
F03C
F03C
F03C
F03C
F03C
F03C
F03C
F03C
3FF0
3FF0
0000
0000
0000
0000
ENDCHAR
STARTCHAR u1ED8
ENCODING 7896
SWIDTH 1332 0
DWIDTH 16 0
BBX 16 32 0 -8
BITMAP
0000
0000
0000
0000
0300
0300
0FC0
0FC0
3030
3030
3FF0
3FF0
F03C
F03C
F03C
F03C
F03C
F03C
F03C
F03C
F03C
F03C
F03C
F03C
F03C
F03C
3FF0
3FF0
0000
0000
03C0
03C0
ENDCHAR
STARTCHAR u0058
ENCODING 88
SWIDTH 1332 0
DWIDTH 16 0
BBX 16 32 0 -8
BITMAP
0000
0000
0000
0000
0000
0000
0000
0000
0000
0000
F03C
F03C
F03C
F03C
3CF0
3CF0
0FC0
0FC0
0FC0
0FC0
0FC0
0FC0
3CF0
3CF0
F03C
F03C
F03C
F03C
0000
0000
0000
0000
ENDCHAR
STARTCHAR u001C
ENCODING 28
SWIDTH 1332 0
DWIDTH 16 0
BBX 16 32 0 -8
BITMAP
0000
0000
0000
0000
0000
0000
0000
0000
0000
0000
0000
0000
0000
0000
0000
0000
F000
F000
F000
F000
F000
F000
FFFC
FFFC
0000
0000
0000
0000
0000
0000
0000
0000
ENDCHAR
STARTCHAR u004B
ENCODING 75
SWIDTH 1332 0
DWIDTH 16 0
BBX 16 32 0 -8
BITMAP
0000
0000
0000
0000
0000
0000
0000
0000
0000
0000
FC3C
FC3C
3C3C
3C3C
3CF0
3CF0
3CF0
3CF0
3FC0
3FC0
3CF0
3CF0
3CF0
3CF0
3C3C
3C3C
FC3C
FC3C
0000
0000
0000
0000
ENDCHAR
STARTCHAR u0028
ENCODING 40
SWIDTH 1332 0
DWIDTH 16 0
BBX 16 32 0 -8
BITMAP
0000
0000
0000
0000
0000
0000
0000
0000
0000
0000
00F0
00F0
03C0
03C0
0F00
0F00
0F00
0F00
0F00
0F00
0F00
0F00
0F00
0F00
03C0
03C0
00F0
00F0
0000
0000
0000
0000
ENDCHAR
STARTCHAR u1EB8
ENCODING 7864
SWIDTH 1332 0
DWIDTH 16 0
BBX 16 32 0 -8
BITMAP
0000
0000
0000
0000
0000
0000
0000
0000
0000
0000
FFFC
FFFC
3C3C
3C3C
3C0C
3C0C
3CC0
3CC0
3FC0
3FC0
3CC0
3CC0
3C0C
3C0C
3C0C
3C0C
FFFC
FFFC
0000
0000
03C0
03C0
ENDCHAR
STARTCHAR u00C0
ENCODING 192
SWIDTH 1332 0
DWIDTH 16 0
BBX 16 32 0 -8
BITMAP
0000
0000
0000
0000
00F0
00F0
0030
0030
000C
000C
0300
0300
0FC0
0FC0
3CF0
3CF0
F03C
F03C
F03C
F03C
FFFC
FFFC
F03C
F03C
F03C
F03C
F03C
F03C
0000
0000
0000
0000
ENDCHAR
STARTCHAR u00FA
ENCODING 250
SWIDTH 1332 0
DWIDTH 16 0
BBX 16 32 0 -8
BITMAP
0000
0000
0000
0000
0000
0000
0000
0000
00F0
00F0
00C0
00C0
0300
0300
0000
0000
F0F0
F0F0
F0F0
F0F0
F0F0
F0F0
F0F0
F0F0
F0F0
F0F0
3F3C
3F3C
0000
0000
0000
0000
ENDCHAR
STARTCHAR u003B
ENCODING 59
SWIDTH 1332 0
DWIDTH 16 0
BBX 16 32 0 -8
BITMAP
0000
0000
0000
0000
0000
0000
0000
0000
0000
0000
0000
0000
03C0
03C0
03C0
03C0
0000
0000
0000
0000
0000
0000
03C0
03C0
03C0
03C0
0F00
0F00
0000
0000
0000
0000
ENDCHAR
STARTCHAR u1EE2
ENCODING 7906
SWIDTH 1332 0
DWIDTH 16 0
BBX 16 32 0 -8
BITMAP
0000
0000
0000
0000
0000
0000
000F
000F
0003
0003
3FFC
3FFC
F03C
F03C
F03C
F03C
F03C
F03C
F03C
F03C
F03C
F03C
F03C
F03C
F03C
F03C
3FF0
3FF0
0000
0000
03C0
03C0
ENDCHAR
STARTCHAR u1ED3
ENCODING 7891
SWIDTH 1332 0
DWIDTH 16 0
BBX 16 32 0 -8
BITMAP
0000
0000
0000
0000
0000
0000
003C
003C
030C
030C
0FC3
0FC3
3030
3030
0000
0000
3FF0
3FF0
F03C
F03C
F03C
F03C
F03C
F03C
F03C
F03C
3FF0
3FF0
0000
0000
0000
0000
ENDCHAR
STARTCHAR u0035
ENCODING 53
SWIDTH 1332 0
DWIDTH 16 0
BBX 16 32 0 -8
BITMAP
0000
0000
0000
0000
0000
0000
0000
0000
0000
0000
FFFC
FFFC
F000
F000
F000
F000
F000
F000
FFF0
FFF0
003C
003C
003C
003C
F03C
F03C
3FF0
3FF0
0000
0000
0000
0000
ENDCHAR
STARTCHAR u1EDC
ENCODING 7900
SWIDTH 1332 0
DWIDTH 16 0
BBX 16 32 0 -8
BITMAP
0000
0000
3C00
3C00
0C00
0C00
030F
030F
0003
0003
3FFC
3FFC
F03C
F03C
F03C
F03C
F03C
F03C
F03C
F03C
F03C
F03C
F03C
F03C
F03C
F03C
3FF0
3FF0
0000
0000
0000
0000
ENDCHAR
STARTCHAR u00F5
ENCODING 245
SWIDTH 1332 0
DWIDTH 16 0
BBX 16 32 0 -8
BITMAP
0000
0000
0000
0000
0000
0000
0000
0000
0000
0000
0F0C
0F0C
30F0
30F0
0000
0000
3FF0
3FF0
F03C
F03C
F03C
F03C
F03C
F03C
F03C
F03C
3FF0
3FF0
0000
0000
0000
0000
ENDCHAR
STARTCHAR u1EA2
ENCODING 7842
SWIDTH 1332 0
DWIDTH 16 0
BBX 16 32 0 -8
BITMAP
0000
0000
0000
0000
00FC
00FC
000C
000C
0030
0030
0300
0300
0FC0
0FC0
3CF0
3CF0
F03C
F03C
F03C
F03C
FFFC
FFFC
F03C
F03C
F03C
F03C
F03C
F03C
0000
0000
0000
0000
ENDCHAR
STARTCHAR u000D
ENCODING 13
SWIDTH 1332 0
DWIDTH 16 0
BBX 16 32 0 -8
BITMAP
0000
0000
0000
0000
0000
0000
0000
0000
0000
0000
0FFF
0FFF
0F0F
0F0F
0FFF
0FFF
0F00
0F00
0F00
0F00
0F00
0F00
3F00
3F00
FF00
FF00
FC00
FC00
0000
0000
0000
0000
ENDCHAR
STARTCHAR u0069
ENCODING 105
SWIDTH 1332 0
DWIDTH 16 0
BBX 16 32 0 -8
BITMAP
0000
0000
0000
0000
0000
0000
0000
0000
0000
0000
03C0
03C0
03C0
03C0
0000
0000
0FC0
0FC0
03C0
03C0
03C0
03C0
03C0
03C0
03C0
03C0
0FF0
0FF0
0000
0000
0000
0000
ENDCHAR
STARTCHAR u1ED6
ENCODING 7894
SWIDTH 1332 0
DWIDTH 16 0
BBX 16 32 0 -8
BITMAP
0F0C
0F0C
30F0
30F0
0300
0300
0FC0
0FC0
3030
3030
3FF0
3FF0
F03C
F03C
F03C
F03C
F03C
F03C
F03C
F03C
F03C
F03C
F03C
F03C
F03C
F03C
3FF0
3FF0
0000
0000
0000
0000
ENDCHAR
STARTCHAR u1EDB
ENCODING 7899
SWIDTH 1332 0
DWIDTH 16 0
BBX 16 32 0 -8
BITMAP
0000
0000
0000
0000
0000
0000
00F0
00F0
00C0
00C0
0300
0300
003F
003F
0003
0003
3FFC
3FFC
F03C
F03C
F03C
F03C
F03C
F03C
F03C
F03C
3FF0
3FF0
0000
0000
0000
0000
ENDCHAR
STARTCHAR u0055
ENCODING 85
SWIDTH 1332 0
DWIDTH 16 0
BBX 16 32 0 -8
BITMAP
0000
0000
0000
0000
0000
0000
0000
0000
0000
0000
F03C
F03C
F03C
F03C
F03C
F03C
F03C
F03C
F03C
F03C
F03C
F03C
F03C
F03C
F03C
F03C
3FF0
3FF0
0000
0000
0000
0000
ENDCHAR
STARTCHAR u1EAC
ENCODING 7852
SWIDTH 1332 0
DWIDTH 16 0
BBX 16 32 0 -8
BITMAP
0000
0000
0000
0000
0300
0300
0FC0
0FC0
3030
3030
0300
0300
0FC0
0FC0
3CF0
3CF0
F03C
F03C
F03C
F03C
FFFC
FFFC
F03C
F03C
F03C
F03C
F03C
F03C
0000
0000
03C0
03C0
ENDCHAR
STARTCHAR u0003
ENCODING 3
SWIDTH 1332 0
DWIDTH 16 0
BBX 16 32 0 -8
BITMAP
0000
0000
0000
0000
0000
0000
0000
0000
0000
0000
0000
0000
3CF0
3CF0
FFFC
FFFC
FFFC
FFFC
FFFC
FFFC
FFFC
FFFC
3FF0
3FF0
0FC0
0FC0
0300
0300
0000
0000
0000
0000
ENDCHAR
STARTCHAR u1EB1
ENCODING 7857
SWIDTH 1332 0
DWIDTH 16 0
BBX 16 32 0 -8
BITMAP
0000
0000
0000
0000
3C00
3C00
0C00
0C00
0300
0300
3030
3030
0FC0
0FC0
0000
0000
3FC0
3FC0
00F0
00F0
3FF0
3FF0
F0F0
F0F0
F0F0
F0F0
3F3C
3F3C
0000
0000
0000
0000
ENDCHAR
STARTCHAR u1EA9
ENCODING 7849
SWIDTH 1332 0
DWIDTH 16 0
BBX 16 32 0 -8
BITMAP
0000
0000
0000
0000
003F
003F
0003
0003
030C
030C
0FC0
0FC0
3030
3030
0000
0000
3FC0
3FC0
00F0
00F0
3FF0
3FF0
F0F0
F0F0
F0F0
F0F0
3F3C
3F3C
0000
0000
0000
0000
ENDCHAR
STARTCHAR u006F
ENCODING 111
SWIDTH 1332 0
DWIDTH 16 0
BBX 16 32 0 -8
BITMAP
0000
0000
0000
0000
0000
0000
0000
0000
0000
0000
0000
0000
0000
0000
0000
0000
3FF0
3FF0
F03C
F03C
F03C
F03C
F03C
F03C
F03C
F03C
3FF0
3FF0
0000
0000
0000
0000
ENDCHAR
STARTCHAR u0009
ENCODING 9
SWIDTH 1332 0
DWIDTH 16 0
BBX 16 32 0 -8
BITMAP
0000
0000
0000
0000
0000
0000
0000
0000
0000
0000
0000
0000
0000
0000
0FF0
0FF0
3C3C
3C3C
300C
300C
300C
300C
3C3C
3C3C
0FF0
0FF0
0000
0000
0000
0000
0000
0000
ENDCHAR
STARTCHAR u0026
ENCODING 38
SWIDTH 1332 0
DWIDTH 16 0
BBX 16 32 0 -8
BITMAP
0000
0000
0000
0000
0000
0000
0000
0000
0000
0000
0FC0
0FC0
3CF0
3CF0
3CF0
3CF0
0FC0
0FC0
3F3C
3F3C
F3F0
F3F0
F0F0
F0F0
F0F0
F0F0
3F3C
3F3C
0000
0000
0000
0000
ENDCHAR
STARTCHAR u0004
ENCODING 4
SWIDTH 1332 0
DWIDTH 16 0
BBX 16 32 0 -8
BITMAP
0000
0000
0000
0000
0000
0000
0000
0000
0000
0000
0000
0000
0300
0300
0FC0
0FC0
3FF0
3FF0
FFFC
FFFC
3FF0
3FF0
0FC0
0FC0
0300
0300
0000
0000
0000
0000
0000
0000
ENDCHAR
STARTCHAR u0022
ENCODING 34
SWIDTH 1332 0
DWIDTH 16 0
BBX 16 32 0 -8
BITMAP
0000
0000
0000
0000
0000
0000
0000
0000
3C3C
3C3C
3C3C
3C3C
3C3C
3C3C
0C30
0C30
0000
0000
0000
0000
0000
0000
0000
0000
0000
0000
0000
0000
0000
0000
0000
0000
ENDCHAR
STARTCHAR u00F2
ENCODING 242
SWIDTH 1332 0
DWIDTH 16 0
BBX 16 32 0 -8
BITMAP
0000
0000
0000
0000
0000
0000
0000
0000
0F00
0F00
0300
0300
00C0
00C0
0000
0000
3FF0
3FF0
F03C
F03C
F03C
F03C
F03C
F03C
F03C
F03C
3FF0
3FF0
0000
0000
0000
0000
ENDCHAR
ENDFONT
